<svg xmlns="http://www.w3.org/2000/svg" xmlns:xlink="http://www.w3.org/1999/xlink" viewBox="0 0 604.12682 722.89275"><defs><style>.cls-1{fill:url(#linear-gradient);}.cls-2{fill:url(#linear-gradient-2);}.cls-3{fill:url(#linear-gradient-3);}.cls-4{fill:url(#linear-gradient-4);}.cls-5{fill:url(#linear-gradient-5);}.cls-6{fill:url(#linear-gradient-6);}.cls-7{fill:url(#linear-gradient-7);}.cls-8{fill:url(#linear-gradient-8);}.cls-9{fill:#754816;}.cls-10{fill:#704415;}.cls-11{fill:url(#linear-gradient-9);}.cls-12{fill:url(#linear-gradient-10);}.cls-13{fill:url(#linear-gradient-11);}.cls-14{fill:url(#linear-gradient-12);}.cls-15{fill:url(#linear-gradient-13);}.cls-16{fill:url(#linear-gradient-14);}.cls-17{fill:url(#linear-gradient-15);}</style><linearGradient id="linear-gradient" x1="153.82601" y1="635.01174" x2="153.82601" y2="696.05165" gradientUnits="userSpaceOnUse"><stop offset="0.31117" stop-color="#7b4c17"/><stop offset="0.51299" stop-color="#bf791d"/><stop offset="0.83032" stop-color="#754816"/></linearGradient><linearGradient id="linear-gradient-2" x1="296.34753" y1="645.02368" x2="296.34753" y2="695.47239" xlink:href="#linear-gradient"/><linearGradient id="linear-gradient-3" x1="430.56011" y1="643.79805" x2="430.56011" y2="695.60833" xlink:href="#linear-gradient"/><linearGradient id="linear-gradient-4" x1="616.94827" y1="636.11419" x2="616.94827" y2="695.13637" xlink:href="#linear-gradient"/><linearGradient id="linear-gradient-5" x1="211.99385" y1="643.25131" x2="211.99385" y2="695.02098" xlink:href="#linear-gradient"/><linearGradient id="linear-gradient-6" x1="377.05292" y1="644.23315" x2="377.05292" y2="695.0296" xlink:href="#linear-gradient"/><linearGradient id="linear-gradient-7" x1="665.61996" y1="644.23315" x2="665.61996" y2="695.0296" xlink:href="#linear-gradient"/><linearGradient id="linear-gradient-8" x1="708.95617" y1="644.23224" x2="708.95617" y2="695.01676" xlink:href="#linear-gradient"/><linearGradient id="linear-gradient-9" x1="373.72688" y1="590.90705" x2="373.72688" y2="83.52932" gradientUnits="userSpaceOnUse"><stop offset="0.02161" stop-color="#704415"/><stop offset="0.38219" stop-color="#db9126"/><stop offset="0.43017" stop-color="#bb7a21"/><stop offset="0.48856" stop-color="#9a621c"/><stop offset="0.54478" stop-color="#835218"/><stop offset="0.59734" stop-color="#754716"/><stop offset="0.64255" stop-color="#704415"/></linearGradient><linearGradient id="linear-gradient-10" x1="374.49047" y1="747.84855" x2="491.42356" y2="747.84855" gradientUnits="userSpaceOnUse"><stop offset="0.28329" stop-color="#704415"/><stop offset="0.33293" stop-color="#8f5a1a"/><stop offset="0.40879" stop-color="#b87820"/><stop offset="0.46862" stop-color="#d28a25"/><stop offset="0.50455" stop-color="#db9126"/><stop offset="0.6303" stop-color="#945e1b"/><stop offset="0.70213" stop-color="#704415"/></linearGradient><linearGradient id="linear-gradient-11" x1="418.83218" y1="712.02056" x2="447.0833" y2="712.02056" gradientUnits="userSpaceOnUse"><stop offset="0.29415" stop-color="#704415"/><stop offset="0.35143" stop-color="#8f5a1a"/><stop offset="0.43897" stop-color="#b87820"/><stop offset="0.508" stop-color="#d28a25"/><stop offset="0.54947" stop-color="#db9126"/><stop offset="0.68184" stop-color="#945e1b"/><stop offset="0.75745" stop-color="#704415"/></linearGradient><linearGradient id="linear-gradient-12" x1="256.69753" y1="553.91776" x2="256.6975" y2="553.91773" gradientUnits="userSpaceOnUse"><stop offset="0.31117" stop-color="#7b4c17"/><stop offset="0.51299" stop-color="#d69b25"/><stop offset="0.83032" stop-color="#754816"/></linearGradient><linearGradient id="linear-gradient-13" x1="625.04087" y1="572.91736" x2="156.4754" y2="104.35188" xlink:href="#linear-gradient-12"/><linearGradient id="linear-gradient-14" x1="539.63747" y1="629.50516" x2="348.67243" y2="438.54012" xlink:href="#linear-gradient-12"/><linearGradient id="linear-gradient-15" x1="564.26614" y1="485.23508" x2="180.66776" y2="101.63671" xlink:href="#linear-gradient-12"/></defs><g id="TEXT"><path class="cls-1" d="M184.72076,666.29572c-.14733-.38422-1.56414-.43738-11.666-.43738s-11.51856.0531-11.666.43738c-.0921.2406-.11993.48309-.06213.53894a21.91424,21.91424,0,0,0,2.62818.40783c2.79138.339,3.602.72907,4.34521,2.091.4516.8283.5014,1.88385.502,10.74523l.00092,9.82666-.66736.71119c-1.73993,1.85443-9.64136,2.01538-15.50586.31591-12.68451-3.67584-20.32806-16.47876-18.89783-31.654.86554-9.18323,4.25293-14.77832,11.02777-18.2146,3.05622-1.55017,6.31208-2.19769,11.00373-2.18811,5.67474.01148,10.14441,1.04981,14.141,3.28479,3.72974,2.08576,5.44733,4.32977,6.20544,8.1073.30133,1.501.47864,1.85822.95758,1.928.80524.11719.9441-.74591.96558-6.00287.00952-2.35809.11047-5.21588.2243-6.35064a8.07405,8.07405,0,0,0,.01813-2.369c-.1734-.28052-2.304-.65253-10.46448-1.82709a94.492,94.492,0,0,0-16.98742-.41876c-9.87689,1.15-17.7981,5.57013-22.70685,12.671a30.75326,30.75326,0,0,0-5.12335,20.555c.75946,8,3.23748,13.44763,8.30816,18.26422a23.97225,23.97225,0,0,0,6.88745,4.87354A44.1569,44.1569,0,0,0,154.7215,695.903l-.00043.00007c7.85541.59924,17.32672-.66181,21.877-2.91279l1.84259-.91143.16816-10.91339c.1015-6.58869.28619-11.19422.466-11.62208.57214-1.36163,1.58581-2.00012,3.63635-2.29052C184.87653,666.94611,184.95581,666.90839,184.72076,666.29572Z" transform="translate(-122.84051 -70.4264)"/><path class="cls-2" d="M329.669,645.403c-1.6128-.28772-6.06012-.37934-18.42518-.37934-14.04895,0-16.29913.0567-16.29913.41095,0,.29785.6264.50049,2.27637.73627,2.71033.38721,3.36621.69787,4.02783,1.90832.4577.83722.50635,2.31025.5846,17.77478.09191,18.11444-.13685,24.5008-.93824,26.1894-.58081,1.22393-1.71692,1.62237-4.61371,1.61914-5.89025-.00714-8.88555-2.47156-21.00036-17.27881l-4.02808-4.92322,1.78278-1.59338c3.556-3.17786,5.483-5.57068,6.80682-8.45185.52588-1.14441.62628-1.87793.637-4.4862.00756-2.84912-.06006-3.25727-.78406-4.73163-1.697-3.45575-4.47675-5.54688-8.86371-6.66779-1.74841-.44677-3.48792-.501-15.714-.50415-11.82123-.00158-13.748.05573-13.748.40912,0,.29785.62641.50049,2.27637.73627,2.71045.38721,3.36615.69787,4.02777,1.90832.45764.83722.50641,2.31025.5846,17.77478.09185,18.1045-.137,24.501-.937,26.18683-.526,1.10822-1.61737,1.5921-3.59649,1.59534-1.11676.00171-1.62366.42139-1.11676.92822.35193.352,20.77936.52716,21.33624.183a.52024.52024,0,0,0,.16949-.61207c-.10882-.28356-.82342-.4663-2.31744-.59265-2.62128-.22149-3.67248-.7193-4.12146-1.95141-.35492-.97388-.95587-16.07349-.66937-16.81995.12543-.32684.88214-.40912,3.76233-.40912,4.26648,0,3.43646-.59979,7.91559,5.72022,7.1383,10.07208,9.88446,12.88928,13.93029,14.29089,1.44526.50061,2.60517.5437,15.874.58911,7.87341.02692,15.65442.17542,17.29138.32984l-.00025.00006a59.23929,59.23929,0,0,0,12.82312-.39112q17.28242-2.99449,21.95521-18.18713c.71093-2.30737.7677-2.86377.7677-7.45416,0-4.60889-.0553-5.14154-.78156-7.51184C347.71808,652.52466,341.26575,647.47235,329.669,645.403Zm-63.802,25.2807v.00006c-1.94183.55688-7.86456.15655-8.60254-.58155-.20507-.20514-.30371-3.70886-.30371-10.78814,0-9.00385.05994-10.52466.42517-10.76929a13.52235,13.52235,0,0,1,3.68506-.19556c2.8136.077,3.47992.19159,4.86847.83673a10.09383,10.09383,0,0,1,5.92322,8.02247,17.96886,17.96886,0,0,1-.4397,7.51593C270.43787,667.53918,268.10431,670.042,265.86694,670.68372Zm73.53388,12.56189a17.86021,17.86021,0,0,1-11.71582,8.23461l.00012.00007a38.18052,38.18052,0,0,1-10.063.43634c-2.282-.30976-4.82477-1.47309-5.61743-2.57007-.839-1.16089-1.01343-5.10095-1.02954-23.24427-.014-15.68188.00744-16.36553.52795-17.00787.5326-.65668.63068-.66949,5.45661-.66308a30.32263,30.32263,0,0,1,6.89862.4851c11.06439,2.6706,16.66028,8.86139,17.753,19.64026C342.13348,673.70679,341.24664,679.59955,339.40082,683.24561Z" transform="translate(-122.84051 -70.4264)"/><path class="cls-3" d="M450.42487,645.02368c-7.99988,0-9.21247.05591-9.21247.42517,0,.31916.52387.48224,2.1.65375,3.63171.39526,4.501,1.27966,4.75378,4.836.19971,2.80676.85443,30.603.72718,30.86536-.057.1173-8.72107-8.39722-19.25354-18.92133-19.76929-19.75336-20.02643-19.98334-20.77594-18.583-.18744.35034-.4419,8.85968-.69721,23.31494-.263,14.88977-.51227,23.132-.721,23.8291-.41937,1.4018-1.23114,1.88752-3.51068,2.10035-1.8974.17724-2.83014.67382-2.10858,1.12274.61725.38409,18.32184.343,18.85071-.0437.76953-.56269.18829-.89429-1.86951-1.06678-3.33063-.27923-4.24151-1.17382-4.6803-4.59564-.13617-1.06207-1.00714-26.52118-1.01788-29.71679-.001-.32258,4.06128,3.56152,10.6991,10.22973,10.49353,10.54138,25.17871,24.66309,26.67041,25.64691h-.00037c1.02124.67359,2.21686.64594,2.59454-.06.19361-.36158.447-8.36243.71174-22.46454.22625-12.04663.48114-22.39472.568-22.99573.33923-2.36536,1.21118-3.13623,3.998-3.53485.94959-.1358,1.38666-.33124,1.38666-.62C459.63751,645.08075,458.39093,645.02368,450.42487,645.02368Z" transform="translate(-122.84051 -70.4264)"/><path class="cls-4" d="M627.64484,662.52728c-1.19928-.56079-2.22254-1.05011-2.27393-1.08752a27.27108,27.27108,0,0,1,2.4165-2.57269c3.84876-3.84064,5.37458-7.34516,5.12452-11.77-.28431-5.03235-3.562-8.61048-9.48035-10.34992-1.43427-.42157-3.435-.49853-15.18738-.58423-13.49591-.09845-13.53552-.097-13.53552.48334,0,.32013.15955.58881.35443.59735,2.46185.1062,4.91461.56464,5.55481,1.03821,1.66418,1.23126,1.59564.23212,1.68457,24.45831.08374,22.72614-.06445,27.1861-.96661,29.08722-.59333,1.25037-1.10273,1.50885-3.39453,1.7229-1.85657.17334-2.646.70807-1.80835,1.22571a53.46746,53.46746,0,0,0,6.77362.0957c3.5202-.07421,8.25006-.01922,10.51062.12226l.00012.00012c10.57983.66211,16.52478-.94189,21.311-5.74988a15.76133,15.76133,0,0,0,4.04785-14.572C637.60608,669.7077,633.56049,665.29382,627.64484,662.52728Zm-15.92829-12.35742c0-8.82788.06147-10.37195.42517-10.67377.29438-.24426,1.1875-.31616,2.90558-.23358a7.45645,7.45645,0,0,1,3.99933.947c3.51721,1.91626,5.70935,6.21674,5.70935,11.20026,0,4.868-2.28882,8.59466-5.73212,9.33313l.00013-.00012a20.7575,20.7575,0,0,1-6.66962.00433l-.63782-.25635ZM624.33069,690.846V690.846a9.81291,9.81291,0,0,1-4.25195.7088c-3.07013.07782-4.33881-.13947-6.1203-1.04828-2.08313-1.063-2.08844-1.09363-2.18812-14.375-.08239-10.939-.05584-11.70758.40973-11.88623a18.3292,18.3292,0,0,1,3.71875.13092c4.2193.42175,5.69971,1.09338,8.417,3.81879a18.16336,18.16336,0,0,1,5.20025,14.08294C629.32288,686.62506,627.679,689.34137,624.33069,690.846Z" transform="translate(-122.84051 -70.4264)"/><path class="cls-5" d="M238.81531,693.57068c-2.3338-.28919-3.09821-.65863-4.38367-2.11908-1.59595-1.813-2.74054-4.2973-11.79047-25.59332-4.4721-10.52369-8.49444-19.85779-8.93853-20.74262-.97748-1.94733-1.77576-2.34118-2.66065-1.31244-.32879.38208-4.58887,9.99726-9.467,21.367-10.38513,24.20514-11.30493,26.19116-12.57178,27.14727a7.49241,7.49241,0,0,1-4.264,1.31867c-1.10077.00165-1.77155.69214-1.09,1.11328h.00012c.40058.24762,17.2544.18964,17.50421-.06018a.62089.62089,0,0,0,.02246-.57837c-.10162-.26477-.7445-.4444-1.8861-.527-3.48572-.25213-3.51557-1.38769-.24927-9.49365l2.324-5.76764,8.62281.07489,8.62286.07489,2.82025,7.05573a59.63286,59.63286,0,0,1,2.67072,7.44519,1.70973,1.70973,0,0,1-.88855.67047c-2.35077.8938.968,1.31018,10.92913,1.37134,5.71259.035,6.59455-.0708,6.45881-.77552C240.53674,693.90808,240.04218,693.72272,238.81531,693.57068Zm-28.94-18.925c-6.52167,0-6.96387-.03229-6.79828-.49609.94751-2.65522,6.843-17.36335,6.95941-17.36011.15668.0022,6.82928,17.26123,6.81854,17.64362A57.89057,57.89057,0,0,1,209.87531,674.64569Z" transform="translate(-122.84051 -70.4264)"/><path class="cls-6" d="M393.73175,686.12457a7.27322,7.27322,0,0,1-.75171,2.10712,3.764,3.764,0,0,1-2.3385,2.24573c-1.49823.69616-1.84064.73773-6.12244.7442-5.12848.00763-6.80688-.3241-8.07965-1.59686-1.2818-1.2818-1.46069-2.8172-1.36212-11.71924l.08789-7.937,5.24408.08911c8.31024.141,9.1687.47552,9.77124,3.80719q.32007,1.77154.71863,1.77307c.51489,0,.78156-.99841.834-3.118.023-.93549.20466-3.00519.40357-4.59943.37079-2.969.24182-3.85962-.48267-3.33765-1.79071,1.29-2.016,1.3675-4.67273,1.6081-1.51538.1372-4.79376.21417-7.28558.17108l-4.53052-.07837V648.70874l5.52759.07776c9.06451.12756,9.91943.50366,10.619,4.67023.17041,1.01464.75055,1.41748,1.1383.79016a24.69789,24.69789,0,0,0,.44269-3.47248c.1507-1.7597.35657-3.95141.45618-4.87042l.18231-1.67084-.82074.22974c-.45148.12628-8.21924.3042-17.26178.39526-14.0965.142-16.44092.22419-16.44092.57654,0,.29785.62647.50049,2.27637.73627,2.71045.38721,3.36621.69788,4.02783,1.90832.45777.83722.50641,2.31025.5846,17.77478.09192,18.1045-.13709,24.501-.93689,26.18683-.526,1.10822-1.61743,1.59211-3.5965,1.59534-1.12762.00171-1.58588.38428-1.12762.93524l-.0008.00006c.21478.25812,4.28662.35993,16.60468.41523,18.76611.08435,17.14416.34075,17.71319-2.8003.561-3.09717.732-7.21875.31006-7.47943C394.41119,684.4278,393.73175,685.27911,393.73175,686.12457Z" transform="translate(-122.84051 -70.4264)"/><path class="cls-7" d="M682.29883,686.12457a7.267,7.267,0,0,1-.75165,2.10712,3.76393,3.76393,0,0,1-2.33862,2.24573c-1.49817.69616-1.84058.73773-6.12238.7442-5.12848.00763-6.80694-.3241-8.07971-1.59686-1.28174-1.2818-1.46069-2.8172-1.36206-11.71924l.08789-7.937,5.24408.08911c8.29932.14093,9.16919.47815,9.76752,3.78717a3.82139,3.82139,0,0,0,.65881,1.86694c.514.17139.91077-1.17364.92578-3.13953.00751-.96429.17633-3.05755.37537-4.65179.3706-2.969.24182-3.85962-.48285-3.33765-1.79065,1.29-2.016,1.3675-4.67261,1.6081-1.51544.1372-4.79394.21417-7.2857.17108l-4.5304-.07837V648.70874l5.52759.07776c9.06433.12756,9.91949.50366,10.61883,4.67023.17035,1.01464.75061,1.41748,1.13831.79016a24.68955,24.68955,0,0,0,.44269-3.47248c.15075-1.7597.35559-3.95141.4563-4.87042l.18225-1.67084-.8208.22974c-.45142.12628-8.21912.3042-17.26166.39526-14.09668.142-16.441.22419-16.441.57654,0,.29785.6264.50049,2.27637.73627,2.71044.38721,3.36633.69788,4.028,1.90832.45758.83722.50641,2.31025.58459,17.77478.0918,18.1045-.13708,24.501-.93707,26.18683-.52588,1.10822-1.61737,1.59211-3.5965,1.59534-1.12756.00171-1.58581.38428-1.12756.93524l-.00043.00006c.21466.25812,4.2865.35993,16.60468.41523,18.76593.08435,17.144.34075,17.713-2.8003.561-3.09717.73194-7.21875.31012-7.47943C682.97815,684.4278,682.29883,685.27911,682.29883,686.12457Z" transform="translate(-122.84051 -70.4264)"/><path class="cls-8" d="M726.51978,684.70874c-.26081,0-.56653.49323-.79084,1.27564-.77649,2.709-1.48736,3.72-3.1698,4.508-1.48071.69354-1.81653.73505-6.10235.73505-5.12732.00116-6.80957-.33252-8.07965-1.6026-1.2818-1.2818-1.46033-2.8172-1.36219-11.71924l.08759-7.937,5.24408.08911c8.29938.14093,9.16913.47821,9.76752,3.78717a3.82,3.82,0,0,0,.65881,1.86694c.514.17139.91077-1.17364.92572-3.13952.00751-.96424.17639-3.05756.37537-4.6518.3706-2.969.24182-3.85962-.48279-3.33765-1.79065,1.29-2.016,1.3675-4.67267,1.6081-1.51538.13727-4.79395.21423-7.28565.17114l-4.53039-.07843V648.7088l5.52753.07776c9.06439.12756,9.91943.50366,10.61889,4.67023.108.64386.33667,1.063.57984,1.063.52923,0,.89227-1.52948,1.1101-4.67713.097-1.40314.25708-3.2395.35566-4.08081l.17913-1.5296-.82336.23016c-.45288.12659-8.22192.30469-17.2644.39575-14.09662.142-16.44092.22419-16.44092.57654,0,.29785.6264.50049,2.2763.73627,2.71045.38721,3.36609.69788,4.02777,1.90832.45771.83722.50623,2.31025.5846,17.77478.09192,18.1045-.137,24.501-.93695,26.18683-.52588,1.10822-1.61731,1.59211-3.59644,1.59534-1.12762.00171-1.58581.38428-1.12762.93524v.00006c.21472.25812,4.2865.35993,16.60461.41523,15.70887.07061,16.34046.05316,16.85889-.46521C726.7149,693.44275,727.5014,684.70874,726.51978,684.70874Z" transform="translate(-122.84051 -70.4264)"/><path class="cls-9" d="M533.21338,654.51959c-2.468,0-3.98529.10791-3.98529.28345,0,.15588.42676.28345.94818.28345,1.82672,0,1.87854.21057,2.06592,8.39074l.16809,7.34156-8.52973-8.496c-6.13824-6.11376-8.61615-8.4096-8.8377-8.188-.2027.20257-.37439,3.7962-.5022,10.50763-.15247,8.00573-.27789,10.30053-.58344,10.66839-.28283.3407-.854.46863-2.09246.46863-2.62586,0-2.79389-.2558-7.56061-11.50446-2.24054-5.28753-4.26953-9.84094-4.50873-10.11859-.353-.40973-.5022-.43646-.79187-.14166-.19629.19977-2.13434,4.51477-4.30664,9.58893-5.33063,12.45184-5.17236,12.17578-6.97772,12.17578-.39991,0-.72724.12756-.72724.28345,0,.175,1.46448.28351,3.82666.28351a13.34042,13.34042,0,0,0,3.82679-.26551c0-.146-.41443-.30548-.92121-.35437-.71655-.06909-.94189-.23553-1.01477-.74939a20.459,20.459,0,0,1,2.01642-5.64654c.19183-.24933,1.30182-.35431,3.74646-.35431,2.44275,0,3.556.10516,3.75031.35431a28.718,28.718,0,0,1,1.366,3.13806c.91,2.32464,1.03345,2.874.74805,3.33075-.33423.53558-.17206.547,7.75641.547,5.32635,0,8.03784-.09705,7.92261-.28351a1.32711,1.32711,0,0,0-.93793-.28778c-1.79907-.0102-1.93494-.54126-2.17438-8.50452l-.20013-6.65643,5.9082,5.8208c3.24951,3.20147,6.94592,6.80505,8.21436,8.00787l-.00025-.00018a9.18262,9.18262,0,0,0,2.90546,2.18707c.55243,0,.60174-.16125.62958-2.05511.0166-1.13025.11193-5.76679.21264-10.30329.19458-8.80121.26209-9.18487,1.61762-9.18487a1.12006,1.12006,0,0,0,.83246-.28345C537.13708,654.6192,535.798,654.51959,533.21338,654.51959ZM498.4726,667.55908a11.88141,11.88141,0,0,1-2.97632-.19018c0-.34107,2.94507-7.73053,3.04248-7.63337.15143.15131,2.91015,7.3584,2.91015,7.60242A10.26809,10.26809,0,0,1,498.4726,667.55908Z" transform="translate(-122.84051 -70.4264)"/><path class="cls-9" d="M557.32874,654.928c-2.27509-.48224-16.34144-.59155-16.05292-.12482a1.21489,1.21489,0,0,0,.88562.28345,3.169,3.169,0,0,1,1.25891.29352c.52588.28112.5484.69122.5484,9.79815,0,6.00971-.10791,9.70624-.29352,10.053a1.20215,1.20215,0,0,1-1.13385.54828c-.46222,0-.84039.12372-.84039.275,0,.15863,1.52869.31244,3.61413.36359l.00025.00006c9.41394.23078,9.56122.22638,11.83575-.35541a16.532,16.532,0,0,0,3.39234-1.25555,12.41318,12.41318,0,0,0,4.3562-4.93073c.67377-1.4364.75409-1.94281.75409-4.72686,0-3.63935-.44049-4.91773-2.44367-7.09088A10.58679,10.58679,0,0,0,557.32874,654.928Zm4.1651,11.90832c-.19928,4.55628-1.9408,6.944-5.79755,7.94861v-.00012a12.54574,12.54574,0,0,1-5.69135.11389c-1.76617-.5108-1.78436-.612-1.78436-10.09027v-8.57715l.743-.18652a17.29552,17.29552,0,0,1,6.37988.635C559.79248,658.41162,561.72284,661.59949,561.49384,666.8363Z" transform="translate(-122.84051 -70.4264)"/><text x="-122.84051" y="-70.4264"/><path class="cls-10" d="M284.11279,731.00684a4.50436,4.50436,0,0,1,.29053,5.21386,4.71351,4.71351,0,0,1-2.00732,1.69239,7.10277,7.10277,0,0,1-3.05518.61816h-7.01953V720.9834h6.69092a7.1921,7.1921,0,0,1,3.08056.60547,4.52671,4.52671,0,0,1,1.94434,1.6289,4.14128,4.14128,0,0,1,.65625,2.28516,3.91229,3.91229,0,0,1-.80811,2.52441,4.69564,4.69564,0,0,1-2.17138,1.49024A3.8814,3.8814,0,0,1,284.11279,731.00684Zm-8.91308-2.65137h3.56006a3.41735,3.41735,0,0,0,2.20947-.64356,2.248,2.248,0,0,0,.79541-1.85546A2.29556,2.29556,0,0,0,280.96924,724a3.33447,3.33447,0,0,0-2.20947-.66895h-3.56006Zm6.186,7.12109a2.44357,2.44357,0,0,0,.8335-1.96972,2.55553,2.55553,0,0,0-.88379-2.04493,3.48055,3.48055,0,0,0-2.34815-.75781h-3.78759v5.47852h3.88867A3.44393,3.44393,0,0,0,281.38574,735.47656Zm9.72071-12.1709V728.457h6.06v2.34766h-6.06v5.37793h6.81738v2.34863H288.228V720.958h9.6958v2.34765Zm20.93115,11.64063h-7.34766l-1.26221,3.585h-3.00488L306.71,720.958h3.333l6.28711,17.57324H313.2998Zm-.80811-2.34863-2.853-8.15528-2.87841,8.15528Zm10.68067-11.61426V732.169a3.595,3.595,0,0,0,3.96386,4.01367,4.06312,4.06312,0,0,0,2.94141-1.00977,3.9882,3.9882,0,0,0,1.04785-3.0039V720.9834h2.87842v11.13476a6.71364,6.71364,0,0,1-.93408,3.63575,5.80006,5.80006,0,0,1-2.49951,2.22168,8.0633,8.0633,0,0,1-3.45948.73242,7.97768,7.97768,0,0,1-3.44629-.73242,5.65832,5.65832,0,0,1-2.46191-2.22168,6.85612,6.85612,0,0,1-.90869-3.63575V720.9834Zm25.90478,0v2.34765H343.144v15.2002h-2.87842v-15.2002h-4.69628V720.9834Zm15.90674,0L357.91455,732.169v6.3623h-2.87842V732.169l-5.83252-11.18555h3.20655l4.06494,8.60937L360.54,720.9834Zm140.65625,17.2832a5.22258,5.22258,0,0,1-2.22168-1.75488,4.45588,4.45588,0,0,1-.80859-2.65137h3.08105a2.7779,2.7779,0,0,0,.89649,1.86817,3.174,3.174,0,0,0,2.23437.73242,3.43935,3.43935,0,0,0,2.32227-.71973,2.33919,2.33919,0,0,0,.834-1.85547,2.02894,2.02894,0,0,0-.51758-1.43945,3.47083,3.47083,0,0,0-1.28808-.8584,19.33571,19.33571,0,0,0-2.13379-.65625,20.09089,20.09089,0,0,1-2.79-.92187,4.60934,4.60934,0,0,1-1.83008-1.45215,4.19508,4.19508,0,0,1-.75781-2.626,4.66476,4.66476,0,0,1,.75781-2.65039,4.83054,4.83054,0,0,1,2.12109-1.74219,7.69393,7.69393,0,0,1,3.15528-.60644,6.57814,6.57814,0,0,1,4.17871,1.27539,4.70416,4.70416,0,0,1,1.80566,3.49707h-3.18164a2.30444,2.30444,0,0,0-.9082-1.6416,3.36391,3.36391,0,0,0-2.19727-.68164,3.11906,3.11906,0,0,0-2.01953.63086,2.199,2.199,0,0,0-.7832,1.81835,1.84335,1.84335,0,0,0,.49219,1.3252,3.48088,3.48088,0,0,0,1.25.82129,19.54166,19.54166,0,0,0,2.07031.65625,21.60469,21.60469,0,0,1,2.84082.959,4.73224,4.73224,0,0,1,1.86816,1.47754,4.24434,4.24434,0,0,1,.77051,2.66407,4.79116,4.79116,0,0,1-.71973,2.52441,5.19128,5.19128,0,0,1-2.0957,1.90625,6.91478,6.91478,0,0,1-3.24414.71973A7.86275,7.86275,0,0,1,504.37793,738.2666Zm23.22852-3.14355h-7.34766l-1.26172,3.585h-3.00488l6.28711-17.57324h3.333l6.28711,17.57324h-3.03027Zm-.80762-2.34864-2.85352-8.15527-2.87793,8.15527Zm10.70508,3.61036h5.93359V738.708H534.626V721.16016h2.87793Zm11.8291,1.35156a8.51015,8.51015,0,0,1-3.25684-3.207,9.519,9.519,0,0,1,0-9.25391,8.53941,8.53941,0,0,1,3.25684-3.19434,9.46723,9.46723,0,0,1,9.03906,0,8.45235,8.45235,0,0,1,3.24414,3.19434,9.61489,9.61489,0,0,1,0,9.25391,8.424,8.424,0,0,1-3.24414,3.207,9.46716,9.46716,0,0,1-9.03906,0Zm7.6123-2.14649a5.51713,5.51713,0,0,0,2.13379-2.27246,7.30286,7.30286,0,0,0,.76953-3.4209,7.22935,7.22935,0,0,0-.76953-3.40918,5.45657,5.45657,0,0,0-2.13379-2.24707,6.55556,6.55556,0,0,0-6.21093,0,5.45657,5.45657,0,0,0-2.13379,2.24707,7.21788,7.21788,0,0,0-.77051,3.40918,7.29124,7.29124,0,0,0,.77051,3.4209,5.51713,5.51713,0,0,0,2.13379,2.27246,6.46335,6.46335,0,0,0,6.21093,0Zm23.10352,3.11817h-2.87891l-8.66015-13.10449V738.708h-2.87891V721.13477h2.87891l8.66015,13.0791v-13.0791h2.87891Z" transform="translate(-122.84051 -70.4264)"/></g><g id="Layer_5" data-name="Layer 5"><path id="path849" class="cls-11" d="M557.73779,610.51134c-.05625-.1946-.51591-2.45849-1.02146-5.031-5.48953-27.93258-21.0658-60.93326-43.34945-91.8425-6.18948-8.58534-12.82844-17.21974-31.9854-41.59924-32.07337-40.81711-42.29486-54.54538-42.29486-56.80554,0-2.21211,2.78445.20984,11.455,9.96378,14.46374,16.27112,53.53261,64.834,67.16,83.48033,20.96112,28.68117,36.52056,59.992,43.245,87.02366,1.19893,4.81943,2.64281,11.94525,2.53251,12.4982-.05132.257-.66725.69451-1.36883.97216-.70157.27759-1.94938.77227-2.77288,1.09929-1.11458.44263-1.52345.50416-1.59959.24077ZM280.175,606.28265c-.11273-.18244-.26112-4.16866-.32975-8.85829-.14145-9.665.20991-14.25871,1.65305-21.612,3.3963-17.30534,11.16445-31.58335,21.7713-40.01614,14.363-11.419,32.96115-18.28894,63.1084-23.31141,2.9622-.4935,5.42458-.93175,5.47195-.974.11661-.1039-2.94959-8.19195-5.48016-14.45567a362.7198,362.7198,0,0,0-33.73651-63.21926c-9.733-14.52813-17.15261-23.92269-25.11584-31.8011-8.38871-8.29933-14.79532-12.61185-22.81088-15.35493a19.38643,19.38643,0,0,0-3.16889-.88454c-.32123,0-2.6075.44257-5.08059.98348-15.81926,3.46-34.96582,5.19131-45.2097,4.0883-11.509-1.23929-19.77556-7.02454-22.93219-16.04886a20.83654,20.83654,0,0,1-.55263-8.63426c.19115-.98465.90452-3.44851,1.58529-5.4753,1.5199-4.5251,1.79061-6.69994,1.14679-9.213-.66926-2.61236-1.505-3.8629-4.84916-7.25609-3.69346-3.74761-4.71672-5.59333-4.73517-8.54127a9.743,9.743,0,0,1,5.5766-8.632,4.22212,4.22212,0,0,0,1.27906-.78417,9.80668,9.80668,0,0,0-1.59624-1.29,23.51119,23.51119,0,0,1-6.3619-7.15937,10.95368,10.95368,0,0,1-.99014-6.13385,6.93531,6.93531,0,0,1,2.80016-3.18623,12.66448,12.66448,0,0,0,3.78141-3.56112,9.56222,9.56222,0,0,0,.668-5.54337c-.52965-3.31544-1.20618-4.13773-7.634-9.27921-6.87292-5.49747-10.802-9.90042-13.31451-14.92021a7.32591,7.32591,0,0,1-1.15-4.32037,7.17376,7.17376,0,0,1,.82562-3.767c1.07052-2.26285,4.016-5.36976,8.38676-8.84632,1.87086-1.4881,4.647-3.91227,6.16911-5.38722a125.7263,125.7263,0,0,0,9.5283-10.64143c.345-.56288.25693-1.19351-.75925-5.43371A87.39922,87.39922,0,0,1,205.6,212.0315a118.77245,118.77245,0,0,1,11.65439-48.04717A115.43,115.43,0,0,1,235.564,136.24962c8.70262-9.9131,22.0811-20.52629,32.77712-26.00224,5.84361-2.99163,10.31658-4.516,19.48153-6.63886,1.82738-.42334,2.99163-.42569,1.54519,0-.36255.10606-1.99086.84419-3.61845,1.64065-2.658,1.30063-3.36822,1.83016-6.97606,5.20066A156.7764,156.7764,0,0,0,260.624,130.54677c-9.46768,12.48741-15.39579,22.92953-19.655,34.621-2.74585,7.53733-3.62619,10.81982-9.94679,37.08742-4.58914,19.072-7.79434,27.6803-13.5772,36.4647-1.37124,2.083-2.70022,4.1886-2.95328,4.67916a4.98769,4.98769,0,0,1-1.14736,1.41728,48.7608,48.7608,0,0,0-3.4702,3.78534,107.60382,107.60382,0,0,1-13.61774,13.49809c-6.01422,4.84526-8.31941,7.56931-8.31941,9.83118,0,2.18326,2.95718,6.42627,6.71864,9.64,1.05987.90553,4.05841,3.11992,6.66343,4.92092,5.12794,3.54522,7.096,5.38139,8.32912,7.771.67629,1.31056.80966,1.956.91,4.4044a12.39454,12.39454,0,0,1-1.53428,7.36365,22.037,22.037,0,0,1-5.28892,5.13971c-1.14362.78051-1.34036,1.05208-1.33506,1.84252a7.36577,7.36577,0,0,0,2.02686,4.23771c2.99434,3.31067,13.19261,11.15135,16.59163,12.75611a52.13555,52.13555,0,0,0,10.40811,3.65083,10.117,10.117,0,0,1,2.93465.93162,1.09381,1.09381,0,0,1-.63358,1.76712c-.74171.18617-4.24442-.72754-6.64542-1.73344-5.90807-2.47518-14.73567-5.80095-15.39744-5.80095-1.42532,0-3.978,1.92079-5.06029,3.80777-1.61137,2.80932-.99626,4.34195,3.2168,8.01514,4.76682,4.156,6.46584,7.36817,6.49078,12.27156.01486,2.92133-.2175,3.84517-2.24587,8.92911-1.94382,4.872-2.23229,7.30938-1.24844,10.54851,1.66014,5.46562,7.22487,10.3407,13.65047,11.95859,7.43038,1.8709,20.13035,1.52995,37.27559-1.00067,16.7834-2.4772,38.76458-8.54017,52.98418-14.61431,18.49745-7.9015,27.75654-14.29684,37.36559-25.80895l2.53982-3.04283,1.67331,1.4554A9.09356,9.09356,0,0,1,360,343.03247a31.16667,31.16667,0,0,1-2.45316,3.28817c-8.32031,10.35352-15.28756,15.95482-27.56929,22.1644a186.40456,186.40456,0,0,1-34.89094,13.53006c-3.50788,1.02082-6.41458,1.89052-6.45937,1.93263a16.28233,16.28233,0,0,0,2.40945.84877c7.32762,2.27174,14.525,7.1769,23.06407,15.71863,7.50951,7.51189,13.8956,15.61093,22.864,28.99688a313.51276,313.51276,0,0,1,17.89511,29.76228,294.34045,294.34045,0,0,1,19.8929,44.72891c1.29659,3.66378,2.37186,6.68823,2.38949,6.721.05.093,12.95441-1.8365,16.59-2.48066,12.98914-2.30136,21.0429-6.20853,29.44826-14.28631a31.1261,31.1261,0,0,0,8.82837-13.33985c1.02786-2.78787,1.0592-2.85319,1.26784-2.64447.30124.30126-1.97071,6.49337-3.6744,10.0146a38.00855,38.00855,0,0,1-10.58794,13.55864c-8.33584,6.94189-15.64,9.6849-35.20339,13.22012-2.57244.46486-5.87026,1.10281-7.32849,1.41767a13.54992,13.54992,0,0,1-2.86736.439c-.55854-.3452-21.27155,3.97634-28.49707,5.94559-17.97675,4.8994-31.35311,11.80911-42.76259,22.08945A29.69069,29.69069,0,0,0,294.396,555.0573c-6.3402,12.767-9.36692,28.95653-8.394,44.89873.18077,2.9622.3992,5.67285.48543,6.0236.15543.6324.13023.63782-2.97535.63782-2.08559,0-3.20059-.11077-3.33707-.33159Zm-63.61513-375.9675c3.79963-7.69179,6.71478-17.14049,11.06309-35.85833,3.72618-16.03983,6.42594-25.59931,9.28631-32.88188,5.12286-13.04284,13.18393-25.3894,25.21753-38.62357a131.5468,131.5468,0,0,1,10.99135-10.54976c1.056-.94633.63175-.73342-2.34925,1.179a180.52985,180.52985,0,0,0-19.44268,15.10187c-19.66607,17.60436-32.6996,39.89869-37.86335,64.76653-2.9778,14.34059-3.26133,27.93742-.8244,39.53408l.62025,2.95161.67039-.82563a44.52465,44.52465,0,0,0,2.63077-4.794Zm34.58978,32.1612a65.47357,65.47357,0,0,1-16.26095-4.15892c-1.736-.70229-3.92294-1.55885-4.85985-1.90339a11.58146,11.58146,0,0,1-3.257-1.68277c.00007-.02145,2.58314-.03858,5.74016-.03858,5.1502,0,5.97175-.06748,7.995-.65286a22.216,22.216,0,0,0,7.01781-3.46394l1.03186-.85054-3.08-3.17917a34.07514,34.07514,0,0,1-2.97714-3.282,6.6,6.6,0,0,1,1.61272,1.02978,57.02907,57.02907,0,0,0,15.59489,7.81269c5.1217,1.48116,12.40936,2.23048,20.74615,2.133l5.35084-.06212,1.098,1.59743A10.41119,10.41119,0,0,1,288,257.6c0,.297-6.52066,2.4383-9.73524,3.19689-5.59047,1.31933-9.61639,1.74358-17.47736,1.84186-4.1315.05166-8.46851-.02131-9.6378-.16223Zm10.34645-40.69143c-1.87086-.54013-4.93228-1.29212-6.80315-1.67112-4.01527-.8136-12.27105-1.91635-12.63994-1.68839-.14173.08788-.25769.04172-.25769-.1007,0-.45761,5.02005-4.86717,6.67647-5.86464a17.57209,17.57209,0,0,1,7.355-1.97951c2.21769-.20467,8.35086.29282,8.76925.71119a65.20274,65.20274,0,0,1,3.1408,9.15824c-.0544.18021-.17029.65652-.25753,1.05867a2.18078,2.18078,0,0,1-2.09892,1.37687c-.2655-.01072-2.01344-.46009-3.88431-1.00008Z" transform="translate(-122.84051 -70.4264)"/><path class="cls-12" d="M490.44574,725.76447c-.87494-1.01838-4.26672-2.007-8.22638-2.39783-3.12585-.30853-6.88592.05993-14.41479,1.41247-.47675.0857-1.53.27485-2.34052.42041-2.737.49164-6.00384,1.12586-6.86194,1.33216-2.2334.537-6.69452,1.82409-9.86822,2.84717-3.5069,1.13043-3.62641,1.13958-4.16333.32025-.28028-.4278-.27686-.46845.076-.90338a35.05968,35.05968,0,0,0,3.16857-5.13739c1.18134-2.23047,1.32288-2.42377,1.8537-2.53235a8.47634,8.47634,0,0,0,1.25019-.39582c.37152-.153,1.007-.4093,1.41229-.56939a3.96054,3.96054,0,0,0,2.12634-1.97437c.08252-.37567.295-.553,1.00458-.83838a11.99607,11.99607,0,0,1,1.76678-.53387c2.01813-.40033,3.38184-.90808,3.50055-1.30322.07337-.24433-1.30749-.78016-2.01056-.78016a11.17886,11.17886,0,0,0-3.76959,1.66327l-.5459.408-.43493-.3421c-.64264-.50549-1.06726-.43164-3.0166.52466-1.8191.89245-2.56043,1.56213-2.67914,2.42035-.04474.32342-.414.64367-1.52838,1.32538a16.57236,16.57236,0,0,0-4.84217,4.66272c-.51538.76281-1.00311,1.46118-1.0838,1.55188-.13843.15563-1.5332-1.03449-1.5332-1.30823,0-.06568.18634-.16614.41412-.22333a3.32585,3.32585,0,0,0,1.65589-1.966c.42163-1.51825.11145-2.96827-1.197-5.59589a2.15028,2.15028,0,0,0-.68989-.58832c-.52557-.30786-.5968-.31085-1.14715-.0484-.87415.41687-1.5304,1.4657-2.16,3.45209a4.63621,4.63621,0,0,1-1.176,2.34235c-.57532.52948-.68915.56347-1.89215.56347-1.81323,0-2.653-.50006-2.91174-1.7337a14.65339,14.65339,0,0,0-1.58149-3.771,3.49181,3.49181,0,0,0-.96716-.84234.91127.91127,0,0,0-1.10956-.0066c-.44818.21375-.6997.55164-1.1726,1.5752-1.14228,2.47211-1.22541,4.31494-.25519,5.65424a3.28029,3.28029,0,0,0,1.11462.96167l.59943.25042-.7251.6897a3.98879,3.98879,0,0,1-.85535.68976,3.35509,3.35509,0,0,1-.68994-.91016,20.79515,20.79515,0,0,0-3.30414-3.97125c-.39477-.31885-1.34863-.97156-2.11962-1.4505-1.1709-.7273-1.42072-.96277-1.51612-1.4292a2.34818,2.34818,0,0,0-.353-.84827,11.52644,11.52644,0,0,0-4.53228-2.31286,1.61753,1.61753,0,0,0-.777.34936c-.386.30365-.48041.31738-.72083.10449a14.8096,14.8096,0,0,0-2.44372-1.43713,3.35438,3.35438,0,0,0-2.66535-.16565,3.04649,3.04649,0,0,1-.79937.28211c-.2652,0-.14209.3692.181.54284a10.511,10.511,0,0,0,2.76361.92267c1.94134.41547,3.06982.90888,3.192,1.39563a3.45026,3.45026,0,0,0,1.90778,1.89911,14.66769,14.66769,0,0,0,2.90057,1.11291c.51062.10157.663.2735,1.25129,1.41211a50.162,50.162,0,0,0,3.50427,5.90668,3.77107,3.77107,0,0,1,.5935.844,1.73947,1.73947,0,0,1-1.07287,1.04718c-.34656,0-.60486-.074-3.26135-.93439a103.828,103.828,0,0,0-15.25647-3.9195c-1.26368-.22265-3.385-.6062-5.20112-.94043-6.06115-1.11554-9.9837-1.467-13.0971-1.17358-3.58972.33826-7.45276,1.458-8.24835,2.39075a7.69989,7.69989,0,0,0-.93244,2.78051c-.09881.64087-.04938.78852.46478,1.387,1.05549,1.22864,1.55225,1.48559,3.81763,1.97436a17.29087,17.29087,0,0,1,2.42719.71039,25.31521,25.31521,0,0,1,4.64605,2.99384,41.49959,41.49959,0,0,0,6.65125,4.00311c1.41058.72406,2.85113,1.49188,3.20117,1.7063a26.74184,26.74184,0,0,0,4.64612,2.12384c4.78131,1.56079,7.67157,1.34784,16.27453-1.19879,4.1203-1.21973,4.79377-1.38037,6.02808-1.43848l1.34717-.06335.7832.72192c.4635.42725.71955.78558.62732.87781a8.70429,8.70429,0,0,1-2.04364.2987c-3.14642.238-6.14722,1.53321-6.65662,2.873-.12432.327-.35278.40741-1.62255.57135a18.21751,18.21751,0,0,0-5.65454,1.819c-1.79316.882-2.84357,1.84082-3.11054,2.83948-.18591.69555-.21728.72149-.76349.63287a18.96958,18.96958,0,0,0-2.90033.1745c-1.28192.14679-3.15.31812-4.15112.38074a18.22064,18.22064,0,0,0-1.92346.17737c-.18213.11206,1.46972,1.75738,2.07019,2.062a6.45833,6.45833,0,0,0,5.37506-.21692,5.00174,5.00174,0,0,0,2.14386-1.7688c.07147-.20593.19983-.15735.61664.23328.84167.78894,1.84729.73364,3.65808-.20118a63.34353,63.34353,0,0,0,5.94452-3.61029c.78753-.57458.82818-.58423,1.59851-.37817a1.57571,1.57571,0,0,0,1.40826-.08319,4.48268,4.48268,0,0,1,.71265-.29468,9.10452,9.10452,0,0,1-1.061,1.257c-1.25055,1.35986-2.162,2.77319-2.16461,3.3565a2.55057,2.55057,0,0,1-.44525,1.01966c-1.39069,2.04925-5.207,11.11883-5.40814,12.85248-.076.65478-.213.8219-1.62,1.97631-1.86749,1.53217-5.53094,5.24164-5.53094,5.60041,0,.40429,1.20337.53119,2.20819.23272a9.21132,9.21132,0,0,0,5.76678-6.10705c0-.20526.09778-.24268.39014-.14954a2.61847,2.61847,0,0,0,2.78589-.85943c.76764-.89661,1.117-2.00031,2.02478-6.39624.57281-2.77387,1.82251-6.02131,2.317-6.02131.43615,0,1.89093-1.5874,2.78662-3.04058a31.829,31.829,0,0,1,2.90991-3.9607c.43457-.4978.47217-.51074.47681-.16473.00274.2066-.05347.40167-.12494.43341a7.2222,7.2222,0,0,0-1.08356,1.63293,11.74706,11.74706,0,0,1-.53223,1.26069,15.54079,15.54079,0,0,0-1.03692,2.51776c-1.51227,4.93048-.95972,11.88672,1.44519,18.19354,1.765,4.62878,4.01843,7.35236,7.48181,9.04291l.00006-.00031c1.38373.67542,1.45319.66376,3.56439-.59973a13.39438,13.39438,0,0,0,5.46283-6.3316,32.26891,32.26891,0,0,0,2.79322-8.75513,42.6452,42.6452,0,0,0,.094-9.70868,24.25335,24.25335,0,0,0-2.75885-6.722,2.37067,2.37067,0,0,1-.47644-1.0802c.16583-.26838,2.51733,2.79052,3.63226,4.72509a8.59722,8.59722,0,0,0,2.48133,2.55768,2.06327,2.06327,0,0,1,.78619,1.0672c.14783.41388.49481,1.37665.77112,2.13953a24.25213,24.25213,0,0,1,.81024,2.94726c.9118,4.62116,1.25433,5.57856,2.34808,6.564a1.65354,1.65354,0,0,0,1.76154.5957c.62341-.045,1.01837-.00525,1.01837.10278a13.83391,13.83391,0,0,0,.76605,1.75122,7.80766,7.80766,0,0,0,5.01984,4.36664c1.08435.30854,2.18909.19788,2.18909-.21924,0-.3977-3.30793-3.78637-5.31263-5.44226-1.60278-1.32391-1.78882-1.5368-1.79211-2.04773-.00379-.63519-.95068-3.24414-2.67542-7.37139a28.02911,28.02911,0,0,0-2.45654-5.09223,7.14786,7.14786,0,0,1-.75177-1.563,8.96667,8.96667,0,0,0-2.26361-3.40118c-1.08478-1.15961-1.16467-1.3642-.35126-.89923a2.01937,2.01937,0,0,0,1.80237.06335c.37824-.1723.5351-.12323,1.26514.39606a50.53757,50.53757,0,0,0,7.39074,4.29816,2.52788,2.52788,0,0,0,2.40778-.54267c.31-.39526.31708-.396.5166-.054a6.30061,6.30061,0,0,0,4.05658,2.31421,7.26258,7.26258,0,0,0,3.431-.34424c.47968-.24182,2.20172-2.02777,2.04706-2.123a16.27174,16.27174,0,0,0-1.93952-.18725c-1.00122-.06263-2.86926-.234-4.15118-.3808a18.91932,18.91932,0,0,0-2.90417-.17383c-.55658.09027-.57911.07031-.76819-.68066a2.70587,2.70587,0,0,0-.99665-1.48011,17.88591,17.88591,0,0,0-8.03247-3.177c-.91766-.09576-1.18426-.18939-1.26519-.44434a2.858,2.858,0,0,0-.70588-.85284,10.34388,10.34388,0,0,0-6.03552-2.10144,8.67144,8.67144,0,0,1-2.04455-.29956c-.09339-.09338.15838-.43872.62292-.85449a2.00535,2.00535,0,0,1,1.72-.71942c1.30072-.03,1.69806.061,6.44367,1.47515,5.60534,1.67035,7.95459,2.15058,10.53467,2.15387a20.57719,20.57719,0,0,0,10.56408-3.16186c.44794-.25952,2.08637-1.1283,3.64075-1.93054a34.63482,34.63482,0,0,0,6.34387-3.90363,14.43089,14.43089,0,0,1,7.23126-3.58826c1.82087-.39117,2.5376-.77594,3.29633-1.76959.58722-.769.619-.87451.50812-1.69122A5.8379,5.8379,0,0,0,490.44574,725.76447ZM376.97015,728.5899c-.71722-.79388-.76941-1.1773-.22772-1.6726a6.49147,6.49147,0,0,1,3.02381-1.29981c1.41088-.35479,1.92309-.38366,6.72821-.37842a47.88852,47.88852,0,0,1,7.80163.37391,82.65393,82.65393,0,0,1,13.26276,2.98352c6.33429,1.86566,10.00421,2.85559,13.26275,3.57739.47046.10425,1.154,1.00854,1.0221,1.35229-.08563.22321-.35657.26825-1.43073.23774-.72876-.02069-2.33929-.05561-3.57885-.07764-3.1756-.05634-8.1388-.38025-10.48883-.68463-6.43714-.83362-10.05567-2.78864-12.04694-6.50861-.1532-.28619-.43567-.44281-.43567-.24151a13.15126,13.15126,0,0,0,.64343,2.5675c.15271.35852.22028.7096.15009.78015-.15247.15326-3.05927.31915-8.56525.48883C380.24872,730.26807,378.1792,729.92816,376.97015,728.5899Zm12.81824,7.30555a36.834,36.834,0,0,1-4.30176-2.874c-.01788-.09533.2406-.19745.57434-.2268a37.52961,37.52961,0,0,0,6.67469-1.78852,8.89585,8.89585,0,0,0,2.03051-1.15942c.12574-.12573.37684.06671.82221.63007a7.62227,7.62227,0,0,0,2.56256,2.10766,4.415,4.415,0,0,1,.99518.69238c.28619.31623.26251.3465-.62317.79529a24.14953,24.14953,0,0,1-4.14026,1.57733v-.00006A14.20682,14.20682,0,0,1,389.78839,735.89545Zm20.97772,5.93573a21.193,21.193,0,0,1-10.855-.762,44.37187,44.37187,0,0,1-5.76324-2.71936c-.05255-.08508.49847-.29474,1.22455-.46588a20.38381,20.38381,0,0,0,4.68444-1.82055l.94379-.51117,1.449,1.36493c2.66192,2.50738,4.88592,3.52044,9.33587,4.25262C412.70685,741.32141,412.40662,741.51617,410.76611,741.83118Zm11.31409-3.71393c-.27393.52032-1.60083.9682-4.20593,1.41974v.00006a11.04352,11.04352,0,0,1-4.681.078c-.66748-.11481-1.91571-.30365-2.77393-.41962a9.17282,9.17282,0,0,1-5.29034-2.57135,6.0421,6.0421,0,0,1-1.211-1.33813,1.02042,1.02042,0,0,0-.34674-.53076c-.48425-.4383-.432-.65253.13-.533,2.45978.52319,11.30542,1.49023,16.42676,1.79578l2.08045.12408.0451.78015A2.8201,2.8201,0,0,1,422.0802,738.11725Zm16.91168-18.94763c.25983-.15851.40033-.09455.82349.37506.54419.60382.68982,1.52539.30218,1.913a.90114.90114,0,0,1-1.2489-.1203A1.98869,1.98869,0,0,1,438.99188,719.16962Zm-13.19464,2.28808c-.38757-.38757-.242-1.30914.30219-1.913.42328-.46967.56366-.53357.82354-.37494a2.11836,2.11836,0,0,1,.13581,2.21521v.00006A.97113.97113,0,0,1,425.79724,721.4577Zm8.46088,55.04657.00006.00006a2.13169,2.13169,0,0,1-2.55127.025,8.38374,8.38374,0,0,1-2.65033-2.33808c0-.09014.24512-.10479.56348-.03375a44.37667,44.37667,0,0,0,6.67468,0c.38385-.08563.56348-.0617.56348.07514C436.85822,774.59253,435.21674,776.02661,434.25812,776.50427Zm5.79309-8.71c-.46625,1.476-.60986,1.58923-2.75958,2.17456a29.05749,29.05749,0,0,1-7.88831.1629c-2.00464-.42205-2.82611-.80889-3.15369-1.485a14.599,14.599,0,0,1-.99206-3.365,6.66418,6.66418,0,0,1,1.55041.50738,17.73331,17.73331,0,0,0,9.26709.86145,20.20855,20.20855,0,0,0,4.40509-1.42077C440.78442,765.09808,440.651,765.89563,440.05121,767.79431Zm1.09979-11.55414a18.45765,18.45765,0,0,1,.1712,2.30347c.07178,1.76917.0412,2.25983-.14984,2.40625a22.97175,22.97175,0,0,1-4.40081,1.26367,25.71854,25.71854,0,0,1-8.32172-.13891,21.19082,21.19082,0,0,1-3.70844-1.12464c-.19329-.14892-.22143-.62811-.1419-2.41516a15.96487,15.96487,0,0,1,.19677-2.32715,2.06422,2.06422,0,0,1,.92261.35132,14.509,14.509,0,0,0,7.29321,1.51038,15.04762,15.04762,0,0,0,6.77546-1.3017A5.282,5.282,0,0,1,441.151,756.24017ZM425.936,752.208a22.68288,22.68288,0,0,1,2.27875-4.64667l.86383-1.41.8125.254a13.47085,13.47085,0,0,0,5.71356.09516l1.2602-.33.66125,1.05365a29.2816,29.2816,0,0,1,2.15076,4.0415c.538,1.2555.55908,1.22541-1.20075,1.70649a53.50225,53.50225,0,0,1-9.50616.26233C427.27332,753.01666,425.936,752.56421,425.936,752.208Zm14.428-13.51709a9.08473,9.08473,0,0,1-6.07147,4.45294l-.00006-.00006a5.6229,5.6229,0,0,1-2.93488-.05615,8.63484,8.63484,0,0,1-6.27893-5.73212,9.466,9.466,0,0,1,2.33728-8.05914,6.8817,6.8817,0,0,0,.96772-1.3028c.41894-.894,3.22607-2.20154,4.70617-2.19214,1.20551.00757,4.0047,1.35205,4.421,2.12329a10.6571,10.6571,0,0,0,1.121,1.48145C440.97119,732.04163,441.70386,735.969,440.364,738.69086Zm12.30292.9328a18.16261,18.16261,0,0,1-2.34052.22534,22.79646,22.79646,0,0,1-5.78417-1.20868c-.65876-.28015-.73505-.37817-.84015-1.07941-.21357-1.42395-.23975-1.40374,2-1.5393a166.87193,166.87193,0,0,0,16.59814-1.81653c.509-.123.49286-.00849-.12555.89038a10.16156,10.16156,0,0,1-6.5058,4.08063c-.76281.1109-2.11371.31225-3.00195.44751Zm13.137,1.51306a26.698,26.698,0,0,1-2.68719.69641h-.00006a28.157,28.157,0,0,1-5.6275.35242,20.86051,20.86051,0,0,1-3.87372-.76374c-.08045-.07055.42663-.22052,1.12689-.33331a16.915,16.915,0,0,0,4.776-1.40582,13.31343,13.31343,0,0,0,4.12543-2.85224l1.387-1.2315.69348.399a21.97849,21.97849,0,0,0,4.81311,1.88537,4.79018,4.79018,0,0,1,1.3415.42829A42.57075,42.57075,0,0,1,465.80389,741.13672Zm22.15546-11.73383c-1.35474.7005-6.82745.98053-11.543.59064a25.72337,25.72337,0,0,0-5.231-.1604,12.417,12.417,0,0,0,3.38074,1.731c.28607.07385,1.10523.28558,1.82037.47046s1.84638.43316,2.51386.55175c1.75122.31116,1.75867.31415,1.46106.59333-.13611.12762-1.14472.80359-2.24127,1.50207h-.00006c-1.95453,1.245-2.01758,1.27063-3.20734,1.30243a10.45041,10.45041,0,0,1-3.20728-.29754c-1.878-.459-5.02771-1.80213-5.02771-2.14393,0-.27154.44391-.63171,1.29407-1.05a12.85048,12.85048,0,0,0,2.86682-2.59192c.78321-1.04431,1.532-3.72748,1.04023-3.72748-.09534,0-.17341.10492-.17341.23315a1.01393,1.01393,0,0,1-.34515.5456,5.59969,5.59969,0,0,0-.779,1.05267c-1.04785,1.788-3.96021,3.52924-7.19757,4.30341-3.33081.79651-7.81281,1.2044-15.4491,1.406-3.10351.082-3.6029.05878-3.79791-.17627-.19043-.22937-.13611-.36194.35663-.8703a1.93076,1.93076,0,0,1,.93731-.60058c.69678-.00183,7.24756-1.74366,12.05848-3.20624a91.99615,91.99615,0,0,1,14.73638-3.32959c3.28589-.44837,11.66462-.43652,13.69623.01929,2.27454.51037,3.64075,1.30346,3.64075,2.1134C489.5625,728.10742,488.74078,728.99878,487.95935,729.40289Z" transform="translate(-122.84051 -70.4264)"/><path class="cls-10" d="M265.00879,729.35l-9.21173-.11463c-5.06647-.063-19.64643-.11468-32.3999-.1148H200.209v1.79144a8.27643,8.27643,0,0,0,.13,1.92883v-.00012c.2.21124,64.52405.00262,64.73657-.21a4.0147,4.0147,0,0,0,.05463-1.7284Z" transform="translate(-122.84051 -70.4264)"/><path class="cls-10" d="M652.09821,729.32324c-.08289-.21606-4.41517-.23871-32.42383-.17-17.7804.04364-32.36261.114-32.40521.15649a10.77489,10.77489,0,0,0-.11335,1.721l-.03607,1.64392,7.26306.08979-.0003.00018c3.99463.04938,18.57544.08862,32.40161.08667l25.13861-.0033.1355-1.63769A9.74486,9.74486,0,0,0,652.09821,729.32324Z" transform="translate(-122.84051 -70.4264)"/><path class="cls-13" d="M419.30457,707.21136c1.33667.32367,6.48034,4.9054,8.60107,7.66156.84027,1.092.94141,1.385.5968,1.72962-.16095.161-.13183.26739.13.4754l.00012-.00036c.2716.21582.60791.24554,1.72436.15283a30.58225,30.58225,0,0,1,5.20105-.00525c1.08277.0918,1.456.0628,1.70172-.13226.27063-.21479.283-.30091.088-.6131-.15473-.24787-.17212-.43854-.05469-.60028,2.38422-3.28388,7.46936-8.03662,9.21509-8.6128.61413-.20263.7843-.51458.27563-.50543a18.32207,18.32207,0,0,0-4.49493.83277c-.99848.50939-2.97168,2.71014-4.57929,5.10748a19.81886,19.81886,0,0,0-1.37134,2.21588c0,.3161-.44366.34515-1.19976.07831a9.17239,9.17239,0,0,0-4.43793.023c-.46478.15838-.86877.21673-.89783.12964-.029-.087-.463-.78223-.96423-1.54486-2.34741-3.57111-3.88794-5.32758-5.31812-6.06324a19.94884,19.94884,0,0,0-4.389-.779C418.65094,706.75256,418.77856,707.084,419.30457,707.21136Z" transform="translate(-122.84051 -70.4264)"/><polygon class="cls-14" points="256.698 553.918 256.698 553.918 256.698 553.918 256.698 553.918"/><path class="cls-15" d="M719.275,391.18115a296.19327,296.19327,0,0,1-24.25439,93.32578c-13.682,30.78661-31.85645,60.04082-56.662,83.11654a190.93735,190.93735,0,0,1-86.75437,45.74,160.42638,160.42638,0,0,1-30.931,3.88343q-6.04021.16308-12.08245-.06977c-11.09723-.42138-17.36407-1.08575-38.63171-4.09527-21.28766-3.01245-25.78351-3.39887-37.11121-3.18958-13.81091.25519-20.99267,1.63373-35.26507,6.76917-7.66687,2.7586-10.71546,4.034-14.85993,6.21679a15.77578,15.77578,0,0,1-3.18494,1.46589,5.04142,5.04142,0,0,1,1.48255-1.02942c.81311-.44873,4.15967-2.48346,7.43689-4.52167,3.2771-2.03815,7.36157-4.4328,9.07654-5.32135,7.847-4.06586,17.03973-6.804,27.72216-8.25739,3.97065-.54022,5.85987-.62414,13.94715-.61908,10.41846.00647,14.249.32062,29.33862,2.40607,12.23663,1.69122,22.86176,3.018,28.06293,3.50415,33.71431,3.15161,67.2263-2.42165,97.3303-18.15543,29.64342-15.493,53.771-39.03413,72.33134-66.67094,4.38331-6.52686,8.46957-13.25149,12.296-20.119a287.31964,287.31964,0,0,0,22.13865-50.71488,292.49967,292.49967,0,0,0,13.95923-73.30182c.45105-6.77844.44959-26.98657,0-33.73229a291.52742,291.52742,0,0,0-12.83649-69.86341,43.39975,43.39975,0,0,1-1.85882-7.47412c-.17194-2.03418-.15912-2.0932.41314-1.9115a3.537,3.537,0,0,0,2.98145-1.25506c.419-.59809.52417-.36725,2.28,5.00152A298.6774,298.6774,0,0,1,719.275,338.17328,308.43943,308.43943,0,0,1,719.275,391.18115ZM683.83,223.42944l-.00013-.00006c1.08362.947,1.12824.95532.67524.12531a8.03415,8.03415,0,0,0-1.49317-1.62989l-1.12982-.96423.53448.8504A8.95552,8.95552,0,0,0,683.83,223.42944Zm17.09954,35.83c.19837-.19849-.47894-1.3067-.7987-1.3067-.28626,0-.152.36389.39471,1.06982C700.67932,259.22119,700.861,259.32776,700.9295,259.25946ZM290.12592,612.84a97.04784,97.04784,0,0,1-17.9856-4.808c-3.39716-1.36-7.16406-3.15-6.9917-3.32239a7.96085,7.96085,0,0,1,2.06592.2002c2.77374.47436,13.75824.72717,14.43817.33227.45563-.26464.36737-.31256-.58759-.32-2.83245-.02173-16.012-2.92054-21.55322-4.7406-6.09668-2.00251-8.25049-3.34949-17.57483-10.99146A289.878,289.878,0,0,1,137.92444,402.80316a298.00972,298.00972,0,0,1,1.55816-86.54748,291.471,291.471,0,0,1,44.46613-112.01075c14.28986-21.42236,32.50238-42.24517,50.6734-57.93591a34.20754,34.20754,0,0,0,3.79559-4.1828l2.03968-2.66656-.36322-2.12354a9.53072,9.53072,0,0,0-.4942-2.12347c-.56495,0-12.60688,10.63134-19.63135,17.33178a294.08642,294.08642,0,0,0-88.85,187.18787,271.87942,271.87942,0,0,0-.9165,29.33856,262.95086,262.95086,0,0,0,2.8844,37.58985A295.238,295.238,0,0,0,238.67731,593.42639c8.976,7.32092,10.71661,8.4892,18.00006,12.08173a87.78207,87.78207,0,0,0,12.30627,5.20794c3.0268,1.01874,5.55493,1.801,5.61707,1.73847.06262-.06262-.40332-.40448-1.03552-.75977-.63208-.35528-1.10535-.6903-1.05072-.7445a19.69209,19.69209,0,0,1,2.92755.61657c1.5559.39331,3.96557.89234,5.35486,1.10889a57.197,57.197,0,0,0,6.91967.38739C291.31079,613.058,291.74921,613.0174,290.12592,612.84Z" transform="translate(-122.84051 -70.4264)"/><path class="cls-16" d="M646.77338,474.45306a4.457,4.457,0,0,0-2.25287-.82952c-7.26795-.90333-11.24689-2.16987-27.135-8.63746a106.523,106.523,0,0,0-22.80957-6.85766,96.22457,96.22457,0,0,0-18.77661-.55866c-10.25476,1.20752-20.6803,5.24628-28.17267,10.91382-4.71448,3.56622-10.69,10.71356-12.66339,15.14673a38.97711,38.97711,0,0,0-2.35889,8.52582,5.26658,5.26658,0,0,1-.496,1.9917c-.41754.82373-.853,1.11694-2.76337,1.86059a59.60165,59.60165,0,0,0-10.06293,5.76795c-2.49109,1.76117-9.435,7.3197-13.14007,10.51837l-3.023,2.6098-1.91058-1.41412c-8.39008-6.20984-20.78125-11.33582-31.95789-13.22052a73.26408,73.26408,0,0,0-31.24561,1.41876c-9.69268,2.76276-20.45855,8.29907-29.95275,15.40326-7.95679,5.95373-13.92176,11.66266-30.83436,29.51111-13.50744,14.25476-19.892,20.39935-28.7232,27.64392-16.76068,13.74914-36.69769,24.9013-48.85578,27.32818-6.09777,1.21723-10.76818,1.57428-20.45129,1.563a95.10728,95.10728,0,0,1-13.3316-.58221c-.881-.01337-1.7666-.08869-2.65076-.18244q-4.57191-.34094-9.38678-.52716-2.1135-.07983-4.182-.12384c.71686.43744,1.79233,1.0752,3.13266,1.79828.73511.39655,1.0603.55469,2.13179,1.10254,2.33044,1.19159,2.674,1.40595,5.697,2.97247.00009.00007,1.6254.8639,2.9787,1.53193,1.37195.67724,13.47809,6.0606,41.44287,7.75189a209.124,209.124,0,0,0,25.33337.01617,220.326,220.326,0,0,0,38.74524-5.97314,202.6153,202.6153,0,0,0,27.77521-9.05677c3.53424-1.39007,10.10352-3.85583,14.59845-5.47937,4.49487-1.62347,11.80792-4.2918,16.25122-5.92962,22.90747-8.44354,32.43817-11.12024,46.77167-13.13562,5.17206-.7273,17.05078-.73371,20.405-.01105a25.19966,25.19966,0,0,1,12.42639,6.285c3.71386,3.45343,5.43634,6.93738,5.43634,10.99555,0,2.715-.68054,4.04358-3.5224,6.87634l-2.28858,2.28119,3.11811-.09662c3.68512-.1142,5.22082-.57678,9.02-2.71673a19.39232,19.39232,0,0,0,7.762-7.72474,17.4221,17.4221,0,0,0,2.25415-7.91418c.60931-9.28418-5.2619-18.12158-15.35108-23.10657-7.69567-3.80237-15.50878-5.33465-25.51184-5.00323a101.41179,101.41179,0,0,0-26.07873,4.59271c-2.80628.83105-5.64447,1.70508-6.30707,1.94238a4.96386,4.96386,0,0,1-1.20471.34937c0-.045,1.81775-1.3761,4.03943-2.9577,7.75683-5.5224,13.31067-10.2591,23.86255-20.35187,10.07415-9.63593,14.15332-13.4336,14.429-13.4336.67389,0,5.44245,2.49878,7.93445,4.15778,4.03473,2.686,8.62982,7.2309,10.10034,9.98993.66333,1.24451.94232-.03.79334-3.62372a18.63742,18.63742,0,0,0-.91388-5.70508c-1.38581-4.29657-3.57117-8.09515-7.59015-13.19324-.49127-.62329-.47113-.64642,3.18945-3.653,5.30286-4.35565,13.8971-10.78485,15.5072-11.60077,2.38825-1.2102,6.98108-3.0412,7.311-2.91455a2.84553,2.84553,0,0,1,.68164,1.34021,48.7722,48.7722,0,0,0,6.70679,12.30481,54.36509,54.36509,0,0,0,8.75921,8.66437,64.65209,64.65209,0,0,0,31.42347,12.43738,14.35036,14.35036,0,0,0,3.04595.14575c.40571-.25074,6.48993.665,9.51252,1.43176a49.90677,49.90677,0,0,1,8.62518,3.53552c9.52789,4.59088,13.61987,5.66309,20.11005,5.26972a47.42737,47.42737,0,0,0,4.80475-.42151c.07012-.013-.02552-.1767-.21259-.36377a1.22514,1.22514,0,0,1-.34021-.73023,7.69317,7.69317,0,0,0-1.26-2.02746c-1.861-2.41858-3.08673-4.6319-5.81934-10.50861-1.35144-2.90625-3.08587-6.42315-3.8543-7.81524-.76838-1.39209-1.4336-2.60883-1.47828-2.70386a8.06183,8.06183,0,0,1,2.40949-.36786c7.17749-.56226,14.53784-3.82727,21.31341-9.45471,2.42426-2.01337,3.14112-2.87683,3.14429-3.7796.00189-.98578-.61731-1.48816-3.05878-2.48176-4.33123-1.76257-6.1347-3.04473-11.27435-8.01538a59.22422,59.22422,0,0,0-7.50812-6.44879c-2.56469-1.68963-2.60778-1.73584-1.61987-1.73584.55817,0,2.71723.20362,4.79779.45246,6.94727.83087,11.59149.22259,15.46961-2.026,3.07684-1.78406,8.615-8.34583,9.47967-11.23182C647.50317,475.15186,647.4837,475.064,646.77338,474.45306ZM456.91986,569.27081c22.8313-7.68078,40.5647-8.42444,53.53565-2.24493a24.92766,24.92766,0,0,1,8.26672,5.85187c4.34131,4.634,6.0694,9.99786,4.987,15.479a15.85493,15.85493,0,0,1-7.17383,10.43988l-2.07251,1.39856.83356-1.64032c3.31964-6.53278.71673-14.78491-6.4798-20.54279-8.29669-6.63818-19.11572-8.38342-36.42377-5.87548A136.32462,136.32462,0,0,0,448.504,577.816c-7.00311,2.28448-10.40711,3.54193-24.46619,9.03784-24.48627,9.57215-37.99341,14.41425-49.8609,17.87427l.00006-.00006c-3.18017.92718-5.92267,1.67572-6.09448,1.66345-.17175-.01233-.12091-.092.11291-.17706,15.71924-5.71985,22.89911-8.72467,48.6142-20.34534C436.81909,576.82684,447.07458,572.583,456.91986,569.27081Zm27.496-36.73034c-28.73956,24.95117-35.66748,30.4226-48.22522,38.08654-4.129,2.51984-4.83148,2.8725-14.70392,7.38068-4.44329,2.029-12.28814,5.62824-17.433,7.99829-25.10895,11.56665-40.46356,17.38031-56.51074,21.3963a186.977,186.977,0,0,1-24.91675,4.38825c-3.18964.31482-13.10431.57135-15.80084.40881a189.61889,189.61889,0,0,1-25.18091-2.80566,31.80907,31.80907,0,0,1-3.53821-.84839,34.03859,34.03859,0,0,1,4.58539-.147c10.40161,0,19.86377-1.56933,41.28332-6.847,28.0691-6.91608,48.382-16.805,79.5683-38.736,3.087-2.1709,8.80182-6.21057,12.6994-8.97718,14.64856-10.39752,23.61158-16.11016,32.31794-20.59783,12.70611-6.54938,23.76379-9.45429,34.01275-8.93525,3.20179.16211,8.11481.85169,8.71613,1.22333C491.62469,525.7356,488.0304,529.4024,484.41583,532.54047Zm8.31244-11.2616c-10.1546-3.20783-21.49451-2.74908-33.68255,1.36255a91.25952,91.25952,0,0,0-14.51447,6.24158c-9.43713,4.91394-16.88007,9.78228-37.53735,24.55249-16.60639,11.8739-26.52655,18.59167-34.54657,23.39465v-.00006c-5.36963,3.2157-10.002,5.79974-9.4961,5.29712.156-.15491,1.55908-1.1543,3.11811-2.22083a258.91041,258.91041,0,0,0,22.53546-17.68866c5.42041-4.74365,7.82574-6.99731,18.05169-16.91406,9.62433-9.33331,13.92151-13.18414,18.94037-16.97327,15.04645-11.35968,30.26-15.79089,46.77167-13.623a83.26868,83.26868,0,0,1,13.59375,3.17846c2.69977.9585,9.26923,3.8227,9.117,3.97486A10.2907,10.2907,0,0,1,492.72827,521.27887Zm15.46454,5.63562,1.52521,2.25537-1.37311-1.53223c-4.89624-5.46386-15.04138-11.77581-23.64575-14.71148-21.66449-7.3916-42.93872-3.49817-63.01587,11.53265-6.221,4.65735-10.12085,8.12195-22.89832,20.34259a375.99629,375.99629,0,0,1-28.88891,25.50934,255.31366,255.31366,0,0,1-25.65351,17.53979c-5.27014,3.04-15.86413,8.19092-17.73181,8.62134h-.00006a15.20206,15.20206,0,0,1-1.53717.29737,18.83364,18.83364,0,0,1,2.8346-1.72058,156.56548,156.56548,0,0,0,23.66278-15.96222c9.13989-7.35566,15.88409-13.863,31.60925-30.49921,11.22754-11.878,18.46936-19.173,22.1073-22.26959,14.50836-12.34955,28.95215-19.39972,43.55127-21.25794a73.93013,73.93013,0,0,1,47.28595,10.77106A42.3054,42.3054,0,0,1,508.19281,526.91449Zm105.97955,6.79114c1.24927,2.49432,2.86042,5.413,3.58026,6.486.71991,1.073,1.30884,1.9978,1.30884,2.05512h.00006c0,.15148-.2033.11248-2.55121-.4892a18.30566,18.30566,0,0,1-4.96063-2.2721c-5.631-3.431-7.2099-4.75116-14.88189-12.44348-8.67786-8.70074-10.62586-10.22015-17.433-13.5971a78.654,78.654,0,0,0-20.63641-6.79682,57.9804,57.9804,0,0,0-12.072-.45428,12.33308,12.33308,0,0,0,2.0816.4386,113.65073,113.65073,0,0,1,13.49292,3.785,80.02242,80.02242,0,0,1,22.35632,12.24945c1.30664,1.055,4.04645,3.5451,6.0885,5.53363l3.71271,3.61554-1.84582-.3833c-1.0152-.21076-4.71442-.71131-8.22046-1.11225s-7.40381-.97583-8.66168-1.27752c-1.25794-.30164-2.97992-.63739-3.82679-.746-4.14142-.53125-12.60583-4.63318-18.41845-8.92579A43.17662,43.17662,0,0,1,541.536,506.329c-1.82684-3.09168-3.45129-6.98859-3.07147-7.36847a18.09993,18.09993,0,0,1,3.36975-.97211c15.16748-3.44183,27.52624-1.723,42.50287,5.9112a84.2078,84.2078,0,0,1,12.48352,7.9389c3.57794,2.88849,10.16662,9.18158,11.171,10.66992A111.3592,111.3592,0,0,1,614.17236,533.70563Zm8.29071-33.32257c5.96228,6.03039,7.08509,6.84442,11.1557,8.08752l1.94312.59338-4.49554,2.17328c-5.3144,2.56922-7.62763,3.47095-10.71424,4.17682v.00086a31.67564,31.67564,0,0,1-8.50091.64923l-1.96625-.10285-2.00855-1.89923c-2.42926-2.29706-8.90155-7.64142-11.63379-9.60638a82.96507,82.96507,0,0,0-11.62207-6.77228,68.2829,68.2829,0,0,0-23.24408-6.74927l-3.40161-.35217,2.55121-.60364a94.30622,94.30622,0,0,1,11.00641-1.91723c4.06378-.49225,6.02417-.29523,11.513,1.15716,4.84961,1.28327,7.87238,2.73334,17.02387,8.16687,10.76019,6.38861,18.848,9.98749,26.14965,11.63611,1.62879.3678.678-.28888-1.3457-.92938a43.3658,43.3658,0,0,1-7.57873-3.97626c-4.87934-2.95312-7.53211-4.70563-18.86084-12.45978-1.67286-1.14508-3.93445-2.57837-5.02576-3.18524l-1.98425-1.10339,1.84253-.00324c1.01336-.00128,3.985.18671,6.60363.41773,5.17975.45691,6.20935.75061,10.97113,3.12982C614.56171,492.77051,616.49133,494.34308,622.46307,500.38306Zm21.08344-22.34314a26.66091,26.66091,0,0,1-9.88666,5.87506,50.08642,50.08642,0,0,1-10.91339.91528c-4.47852.02557-5.67682-.08331-12.33069-1.11987-13.19617-2.056-21.58765-2.61408-30.75586-2.04639-11.10608.68768-19.4425,2.45044-28.34643,5.994l.00006-.00006c-1.48114.58948-3.42646,1.39947-4.32288,1.8-.89642.40063-1.62994.62451-1.62994.49756,0-.358,4.22717-4.34363,5.811-5.47889,6.82434-4.89148,16.76013-8.24609,28.91339-9.76214a110.99953,110.99953,0,0,1,18.70862-.12818c6.73505.6861,14.41431,1.94532,16.53687,2.71155,1.94671.70288,3.01068.814,1.84173.19238a95.9552,95.9552,0,0,0-10.44159-4.09991,71.701,71.701,0,0,0-20.40948-2.9541c-10.01843-.218-17.41687.77893-25.48755,3.43475-8.72491,2.8711-16.91046,8.21222-20.44043,13.33759a5.74533,5.74533,0,0,1-1.19,1.45746c-.24927-.24927,1.72687-4.78376,3.11188-7.14026,5.35968-9.11957,18.68762-16.5199,33.2019-18.43524a86.14514,86.14514,0,0,1,17.89081.29437c7.06781,1.12347,13.66058,3.13605,24.2362,7.39862,8.6153,3.47241,12.216,4.75171,16.01575,5.69012,3.25556.804,7.92951,1.15454,9.74469.73072l1.24072-.28968Z" transform="translate(-122.84051 -70.4264)"/><path class="cls-17" d="M701.84442,296.7854l.9505-1.05206c2.28424-2.52844,4.10559-12.04944,3.76795-19.69739a72.8138,72.8138,0,0,0-3.70673-19.82751c-2.34607-7.02094-5.37433-12.426-9.45789-16.88111-1.877-2.04779-1.96228-2.20422-2.31915-4.252a36.07316,36.07316,0,0,0-2.77356-8.78736,48.973,48.973,0,0,0-9.99835-15.1654,23.66393,23.66393,0,0,1-3.09338-4.5354c-.82648-1.55908-2.56513-4.42914-3.86371-6.378-12.31909-18.48767-28.02472-28.16889-50.871-31.35761a104.07493,104.07493,0,0,0-20.69287-.0141,77.64958,77.64958,0,0,0-25.3529,7.56665,76.64427,76.64427,0,0,0-17.51984,12.17267c-1.73041,1.63776-2.80762,2.47229-2.88324,2.23371-.06646-.20948-.46393-1.97535-.8833-3.92414a174.67843,174.67843,0,0,0-7.30127-23.95276A213.86964,213.86964,0,0,0,534.809,140.95166c-10.59583-16.819-23.81464-30.10248-41.88892-42.09369a180.78019,180.78019,0,0,0-44.92889-21.09643c-16.7583-5.07813-31.04749-7.01777-53.76154-7.29779-27.78662-.34253-41.84845,1.59014-66.71112,9.16882a168.2491,168.2491,0,0,0-27.4577,10.64654c-1.2262.6153-3.31323,1.55567-4.63794,2.08966a15.18587,15.18587,0,0,0-3.32269,1.77369,59.67183,59.67183,0,0,1-4.99988,3.275,70.86679,70.86679,0,0,0-6.02539,4.03876,43.827,43.827,0,0,1-4.67712,3.141A161.83079,161.83079,0,0,0,256.369,118.8999c-1.87085,1.61493-4.58161,3.81732-6.02387,4.89417a17.61272,17.61272,0,0,0-2.515,2.06518,17.56713,17.56713,0,0,0,2.7641-1.56372c1.46124-.91907,4.76147-2.793,7.33392-4.16449,2.57245-1.3714,7.41968-4.2185,10.77167-6.3269,8.41961-5.296,11.01819-6.85523,11.41937-6.85211.18939.00146-.22967.34124-.93121.755-4.70368,2.77429-9.97272,8.50116-14.05542,15.27692-11.13776,18.48419-14.88123,43.79516-10.143,68.57959a177.46233,177.46233,0,0,0,9.30207,30.89758c6.20471,14.99646,17.063,33.77893,29.33337,50.74017,5.55414,7.67737,6.53406,9.2016,9.47961,14.74524a114.28171,114.28171,0,0,1,13.22846,42.23114,103.09019,103.09019,0,0,1,.00854,16.29926c-1.17535,8.55334-5.36676,18.99512-11.05975,27.55224a68.093,68.093,0,0,1-9.59662,11.6623c-9.99194,10.1112-20.3042,16.93487-46.11981,30.51764-19.19257,10.098-27.784,15.77868-35.55164,23.50671a67.59226,67.59226,0,0,0-20.14917,48.35645c0,13.16241,3.39985,22.96472,11.13935,32.11676a41.93286,41.93286,0,0,0,25.00238,14.351h.00024a47.04763,47.04763,0,0,0,13.50574-.1344,32.08879,32.08879,0,0,0,20.6452-13.63379,22.60738,22.60738,0,0,0,4.06207-13.71222c-.011-6.17621-1.85144-11.14148-4.76745-12.862-.98889-.58343-1.36566-.41772-.56366.24786a1.13444,1.13444,0,0,1,.42517.65027,14.29855,14.29855,0,0,0,.73016,2.12238,21.81345,21.81345,0,0,1-1.3352,18.703c-1.42914,2.43714-6.43775,7.30176-9.205,8.94049-7.07953,4.19239-14.50232,5.34253-23.138,3.58533-13.81439-2.811-25.287-13.93927-28.95184-28.08246-1.18238-4.56329-1.43885-6.8761-1.426-12.86389a46.3924,46.3924,0,0,1,.64936-9.307c2.48358-14.17822,8.33648-25.41357,18.265-35.06195,7.32953-7.12274,15.14252-12.1839,34.34857-22.25043,25.755-13.499,36.20386-20.5036,46.78058-31.36022a72.63171,72.63171,0,0,0,9.34015-11.43769,74.14067,74.14067,0,0,0,11.95886-30.75592,103.08473,103.08473,0,0,0,.12818-18.8504,135.40523,135.40523,0,0,0-4.82935-22.6134,7.22726,7.22726,0,0,1-.60876-2.34247c.42938.26538,8.94744,12.13171,12.115,16.87713,11.85241,17.75666,18.626,33.0586,21.89618,49.46454,5.1939,26.05731-.35621,54.86682-14.17463,73.57752-9.876,13.37249-24.33545,23.72558-38.72839,27.72992-5.34351,1.48663-6.13739,1.59088-12.12982,1.5866-5.304-.00341-5.86914-.05548-8.7724-.80859a60.96057,60.96057,0,0,1-10.68707-3.74451,17.09372,17.09372,0,0,0-2.13575-.97082c-.65081,0,2.70105,2.82489,4.87085,4.105a35.0012,35.0012,0,0,0,18.99213,4.96252c15.29443,0,33.55249-8.78112,46.92572-22.56884,12.94214-13.3432,20.86987-30.93573,23.42328-51.979a163.51124,163.51124,0,0,0,.15027-23.95276c-1.68848-14.55517-5.81012-27.72552-13.25916-42.36895-1.65375-3.251-2.65808-5.49439-2.28424-5.10236.36688.38483,3.00629,3.31464,5.8653,6.51068,6.13073,6.85346,17.5368,18.34339,22.95147,23.12018,2.10956,1.86108,7.05634,6.17676,10.99292,9.59039,5.36371,4.65119,7.631,6.81781,9.04749,8.64563,9.0133,11.63092,22.36523,24.17169,36.41815,34.20581,9.15411,6.5362,19.26752,12.34278,25.17047,14.45142,11.40717,4.075,17.312,5.21222,28.20477,5.43231a75.56656,75.56656,0,0,0,11.19684-.325c10.49536-1.19556,20.87293-4.18652,28.34644-8.16986a79.77493,79.77493,0,0,0,27.13751-23.65161c1.21063-1.64014,2.4021-3.242,2.64783-3.55951.43683-.56458.51648-.52124,3.57269,1.94378,9.8241,7.92359,26.62305,13.80237,44.1142,15.43769a123.80149,123.80149,0,0,0,20.03955-.43463c25.37616-3.94111,48.23669-18.99189,65.2431-42.95429,9.51264-13.40344,16.62329-30.217,19.0611-45.07086a83.44006,83.44006,0,0,0,.01105-26.61743Zm-5.59057-41.86755c1.25488,3.332,2.53491,7.57446,2.4038,7.96765-.05389.16162-.7326-.6402-1.50842-1.7818a28.48736,28.48736,0,0,0-18.071-12.01642c-14.21283-3.012-31.21088,2.01794-46.98407,13.90326-4.01252,3.0235-12.35474,9.757-16.85932,13.60828-24.759,21.168-44.6076,36.16992-56.806,42.93487l-.00012-.00024c-2.80432,1.55523-4.10925,2.14587-3.95068,1.788.05249-.11816,1.04706-1.48639,2.2102-3.04053,1.16327-1.55407,3.4289-4.8706,5.03485-7.37,2.55652-3.97907,3.19275-4.76776,5.11335-6.33917,1.20648-.98713,5.18-4.55878,8.83-7.937,12.65357-11.71136,15.22119-14.0465,21.42658-19.4859,14.58526-12.78479,24.56073-19.82928,36.50885-25.7821,12.75567-6.35516,22.35357-8.92151,33.36523-8.92151,7.19806,0,12.18445.81451,16.53882,2.70148a9.54348,9.54348,0,0,0,2.40442.84344c.2417-.2417-4.78711-2.43347-8.17157-3.56158-12.69244-4.23072-26.13568-3.52161-41.04474,2.165-17.40448,6.63842-32.5957,17.468-57.01306,40.64355-4.75037,4.50873-4.89258,4.6178-3.70935,2.84589a161.8707,161.8707,0,0,1,21.16266-25.80616,116.341,116.341,0,0,1,12.99817-11.19451c15.1192-11.44513,29.17608-17.726,44.78741-20.01185a78.06409,78.06409,0,0,1,15.16535.00861c5.31213.95026,11.67944,4.49255,16.78747,9.33936A35.82488,35.82488,0,0,1,696.25385,254.91785ZM543.81653,307.78406c-1.02606,2.33856-1.97766,4.50708-2.11481,4.81885-.19745.449-.27844.47851-.3894.14178-.077-.23389-.91992-2.83252-1.873-5.77472l-1.73291-5.34949L538.707,299.033c.55036-1.42316,1.39734-3.608,1.88226-4.85523a150.43205,150.43205,0,0,1,7.75965-15.30712,171.80018,171.80018,0,0,1,25.64062-33.02784,122.49264,122.49264,0,0,1,14.64685-12.80749c19.57666-14.58441,40.30921-21.38635,58.11933-19.06775,11.31579,1.47314,22.5368,6.56757,33.17987,15.06415a29.29315,29.29315,0,0,1,2.62207,2.22949,9.85629,9.85629,0,0,1-2.04468-.89343,48.26671,48.26671,0,0,0-5.315-2.10627c-1.79865-.59216-3.90808-1.35638-4.68762-1.69824a66.77769,66.77769,0,0,0-14.307-4.08581c-9.3075-1.50537-21.23969-.33191-31.89777,3.1369-15.78241,5.13666-32.39752,16.36133-45.99194,31.0708-15.391,16.65326-26.79834,33.55035-34.49731,51.09888Zm1.68225,8.61725c9.67084-24.922,20.61652-42.60541,35.69885-57.67347a119.14649,119.14649,0,0,1,30.919-22.24639,83.88994,83.88994,0,0,1,27.73327-8.91321c2.868-.39789,9.65711-.83368,9.11713-.58515-.15588.07172-1.81415.4654-3.68506.87482a98.75056,98.75056,0,0,0-15.98218,5.33447c-12.98449,5.81287-27.60382,16.24292-38.4439,27.42749-9.40351,9.70233-17.64545,20.83747-27.77607,37.52637-7.87017,12.96509-12.4403,19.54218-16.98834,24.44879h-.00006a11.70752,11.70752,0,0,1-1.85754,1.77167c-.11847,0-.33771-.61865-.48719-1.37482C543.48627,321.6748,543.55988,321.398,545.49878,316.40131Zm80.91077-131.94983a72.30818,72.30818,0,0,0-12.73383-.58942,87.4296,87.4296,0,0,0-22.67712,3.47028,88.485,88.485,0,0,0-32.42389,17.95776,17.38843,17.38843,0,0,1-2.48035,2.00574c-.135,0-.24542-.54212-.24219-1.20471.00177-.6626-.14746-2.77417-.33166-4.69239l-.3349-3.48761,1.96155-1.99469A71.95381,71.95381,0,0,1,601.379,174.80707a103.32134,103.32134,0,0,1,19.95025.30426c15.82135,2.48224,27.97156,8.27124,38.3736,18.2832,2.39276,2.303,7.83112,8.28583,7.83112,8.61511a8.92458,8.92458,0,0,1-2.00727-1.00213c-6.28442-3.62323-15.17261-6.52222-24.21325-7.8974a108.48465,108.48465,0,0,0-22.252-.4267c-21.06415,2.15747-37.03888,9.08661-53.5603,23.23206h.00006c-1.6449,1.40838-4.82513,4.35028-7.067,6.53747s-3.99237,3.70575-3.88983,3.37451c.27521-.88922,1.30005-8.04046,1.30329-9.079.00109-.77679.50677-1.3797,3.86053-4.60315a95.66347,95.66347,0,0,1,44.61322-24.11193,91.45283,91.45283,0,0,1,24.07361-2.7389,39.813,39.813,0,0,0,4.79681.03711C633.11322,185.253,630.06116,184.85693,626.40955,184.45148Zm-60.04071,38.81115c13.87176-12.64416,25.72863-19.33154,41.16973-23.22009a97.64373,97.64373,0,0,1,25.27106-3.07678l6.51965.00812,3.96851,1.072c12.64478,3.41565,19.63971,6.69543,26.70422,12.52112,6.60968,5.45062,13.05774,14.60882,14.6612,20.8233.16144.62567.12683.60907-.29523-.14172-2.9165-5.18769-12.289-12.71863-21.04718-16.91175a55.33983,55.33983,0,0,0-25.12537-5.69317c-9.58685-.00739-18.09173,1.706-28.063,5.65344-17.6424,6.98431-34.58686,19.73242-49.83326,37.49188a160.192,160.192,0,0,0-21.18066,31.90058c-1.34918,2.80627-2.58075,5.41766-2.73688,5.803-.20721.512-.3374-1.18133-.483-6.2843-.18317-6.42016-.15387-7.16455.36224-9.20465.3089-1.22082.7685-3.84179,1.02137-5.82446a32.74593,32.74593,0,0,1,2.38818-9.43451C543.70593,248.6601,555.06,233.57074,566.36884,223.26263ZM306.86536,95.50287a333.70585,333.70585,0,0,1,39.21985-5.4422c7.522-.60352,28.66607-.85779,35.76538-.43005a190.40348,190.40348,0,0,1,47.85675,8.80261c27.20477,9.06335,48.67028,23.17151,69.003,45.352a91.58151,91.58151,0,0,1,10.57586,13.23114,31.80052,31.80052,0,0,0,2.85059,3.94446c.30212-.30207-8.18018-13.34076-11.76416-18.0835a159.031,159.031,0,0,0-29.69159-29.558c-20.95258-15.5794-47.31372-25.404-77.11548-28.74035-19.50085-2.18317-38.44763-1.81519-64.60565,1.25476-1.04742.12292-.99561.08124.54266-.436A209.64368,209.64368,0,0,1,355.723,78.91241c9.80823-1.696,16.86768-2.26074,31.03937-2.48266,36.02771-.56421,59.82837,4.35492,87.05914,17.99353,22.49439,11.2663,40.89893,26.77423,53.88959,45.408,7.72217,11.07672,14.03308,25.283,18.63678,41.95276,2.86389,10.36993,4.00549,17.29,4.30225,26.07873a81.71959,81.71959,0,0,1-2.53846,23.389c-.884,3.53735-.9945,3.78388-2.6994,6.02362-.97772,1.28449-1.80395,2.33521-1.83587,2.335-.03205-.00018-.07349-3.41235-.09192-7.58264A149.33283,149.33283,0,0,0,538.83,193.7973a183.09332,183.09332,0,0,0-21.893-51.55658c-9.25641-14.76507-23.22223-29.28515-33.79681-35.13806l-1.41736-.78448,1.29254,1.23687c.71088.68024,2.80237,2.57074,4.64777,4.20111,7.18786,6.35016,15.95453,16.95466,22.12469,26.76288a198.07649,198.07649,0,0,1,24.09485,58.00513,163.18176,163.18176,0,0,1,4.07587,34.86615l-.02686,3.25989L537.517,232.666a162.18429,162.18429,0,0,0-8.92609-30.297,179.34715,179.34715,0,0,0-33.72107-53.60852c-4.26275-4.761-13.90069-14.228-18.2492-17.92554-18.51105-15.74-36.5304-24.94885-60.31122-30.82239-7.60315-1.87787-9.32215-2.15814-20.051-3.26928-4.59918-.47632-10.00946-1.11768-12.02282-1.42518a26.32707,26.32707,0,0,0-3.78931-.43048c-.14337.14337-.266.11176,5.04053,1.30115,4.53338,1.01611,5.3742,1.2558,15.874,4.5257,4.44336,1.38372,10.75745,3.30432,14.03149,4.26794,29.13666,8.57581,49.20862,20.98438,71.29059,44.07233,21.98584,22.98736,36.86566,49.36139,46.21289,81.91046,1.73206,6.03149,4.528,16.992,4.528,17.75049a25.057,25.057,0,0,1-1.671,4.00519c-.91907,1.91-1.82184,3.951-2.00623,4.53564h.00006c-.18439.58466-.4295,1.063-.54474,1.063a10.33141,10.33141,0,0,1-.72168-2.76373c-.28173-1.52009-1.18707-5.44257-2.01184-8.71656-6.6416-26.36468-18.8706-49.95807-38.441-74.1643-20.81311-25.74323-43.76495-43.31922-74.0838-56.73151-17.502-7.74243-37.77466-14.26941-53.4331-17.20331-10.9093-2.04407-15.46546-2.52569-29.95087-3.1662a144.42836,144.42836,0,0,0-33.4035,2.11878,31.78659,31.78659,0,0,1-3.79944.57989C296.91809,97.877,301.31726,96.59564,306.86536,95.50287ZM416.39728,142.466c1.94171.98139,5.63513,3.12549,8.20758,4.76465,2.57239,1.63916,5.889,3.73706,7.37005,4.662a182.9563,182.9563,0,0,1,20.40943,15.41345c15.80151,13.89929,33.1369,34.1131,46.69348,54.44641a293.51762,293.51762,0,0,1,26.13409,50.83991c1.12409,2.93909,2.00361,5.38263,1.95459,5.43-.04907.04749-1.22937-1.88257-2.62286-4.28894-13.67615-23.61682-35.27972-50.26245-64.34619-79.36377-20.9303-20.95544-36.424-33.56787-59.62024-48.53283a421.85661,421.85661,0,0,0-42.58655-24.255c-21.0293-10.50189-39.94263-17.33368-52.67169-19.026a4.18051,4.18051,0,0,1-1.40558-.301c.20343-.20343,8.98151-1.25225,12.83319-1.53338a192.83839,192.83839,0,0,1,35.342,1.27051c13.79853,1.74225,20.41132,3.27258,34.10675,7.89288,27.42694,9.25281,49.32849,20.14221,66.93354,33.27917,19.92755,14.87,39.084,36.61744,53.76226,61.03376,12.68818,21.106,20.90216,44.80444,25.27955,72.93506.4093,2.63006.69873,4.82733.64324,4.88287a15.10218,15.10218,0,0,1-.75659-2.656c-3.532-14.8507-11.64074-33.65716-22.63824-52.50494-6.677-11.44318-17.71454-26.38922-28.365-38.40949-4.21393-4.75592-16.33075-16.87085-20.16584-20.16278a161.05743,161.05743,0,0,0-27.47949-19.36224,70.67069,70.67069,0,0,0-11.49688-4.98169c-2.0268-.73071-4.7389-1.76245-6.02692-2.29278C412.29144,140.16632,412.4964,140.49445,416.39728,142.466ZM289.08374,114.036c.38947,0,9.49347,6.36151,15.2497,10.65582,11.25189,8.39423,24.07678,18.99048,45.295,37.42371,21.2323,18.44556,31.11511,26.2301,45.48407,35.82715,8.23443,5.49975,14.34057,9.20837,23.72607,14.41028,6.35657,3.52307,34.058,17.402,34.4635,17.2669a35.75952,35.75952,0,0,0-5.0592-2.89477,428.11011,428.11011,0,0,1-52.97669-33.03235c-12.70391-9.49329-19.45446-15.24481-45.25109-38.55438-15.98548-14.44422-30.9469-27.015-41.99225-35.28248a30.24415,30.24415,0,0,1-3.23615-2.60021c.10492-.10486,8.48932,3.49121,15.85065,6.79834a355.16767,355.16767,0,0,1,39.90448,21.384,563.89074,563.89074,0,0,1,47.30792,33.43078,38.35131,38.35131,0,0,0,4.51184,3.34754c.08179-.08185.09558-.1897.03064-.23975-.065-.05-4.31463-3.58978-9.44378-7.86615-19.568-16.31463-25.01813-20.65-34.845-27.71789-20.21344-14.5384-38.68011-24.64923-68.3833-37.441-6.4-2.75623-6.42059-2.79468-1.21624-2.27716,11.11786,1.10553,23.72033,4.97747,41.77014,12.83343,22.75915,9.90558,54.05475,28.09143,75.975,44.14893,18.36176,13.4508,36.5373,30.2406,57.927,53.51056,19.12359,20.80456,33.19671,39.04083,43.89843,56.88446,11.03424,18.39807,17.78,36.13641,22.18463,58.33569h.00007c.94647,4.77008,1.01574,6.13385.17388,3.41821a140.14519,140.14519,0,0,0-6.54058-15.7052,111.51509,111.51509,0,0,0-8.30622-14.15893c-19.12726-28.18921-43.83838-48.23059-81.56408-66.15064-3.43-1.62927-10.76459-5.00091-16.29926-7.49249-16.48987-7.42358-25.61078-11.81866-32.59839-15.70819a264.94667,264.94667,0,0,1-25.441-17.27924,21.18459,21.18459,0,0,0-3.189-2.27581,24.45044,24.45044,0,0,0,2.90429,2.61743c1.59729,1.31958,4.81818,4.06579,7.15748,6.10278,11.94769,10.40387,17.5957,13.829,49.74926,30.17,25.38629,12.90174,36.09687,18.99573,48.681,27.69764A182.82385,182.82385,0,0,1,533.783,330.4256a44.66715,44.66715,0,0,1,2.01654,4.28753c-.145-.15588-.944-1.24017-1.77582-2.40948-5.35669-7.53046-15.72717-19.0813-24.37951-27.15417a239.97039,239.97039,0,0,0-48.05372-34.55787c-6.25781-3.48028-13.8551-7.46423-29.899-15.67859-25.61737-13.1159-34.42646-18.10162-49.4646-27.99542A312.07832,312.07832,0,0,1,348.55066,201.694c-26.90918-23.0506-43.35217-45.11963-54.43475-73.05963C291.60107,122.29425,288.75439,114.036,289.08374,114.036Zm-6.04413-3.94525a16.71751,16.71751,0,0,1-.0318,3.37836c-.68774,12.28918,3.146,31.68786,9.35541,47.33856q20.17438,50.84858,72.43054,85.5744c12.95856,8.62494,19.1709,12.09912,43.22833,24.17535,19.66456,9.87116,24.416,12.34388,29.19684,15.19483,4.72876,2.81982,14.44416,9.25457,17.09662,11.32342a17.45272,17.45272,0,0,0,2.43976,1.7378c.1803-.21711-8.09821-7.73713-11.03485-10.02387-8.79614-6.8493-21.362-14.52258-44.785-27.348A374.55865,374.55865,0,0,1,368.337,241.94073q-39.14237-26.441-59.71106-60.95489a159.42293,159.42293,0,0,1-21.22669-58.02075c-.81647-4.975-.65747-5.06287.5979-.33063,9.24622,34.85523,30.95111,64.27588,69.59058,94.32892a384.76035,384.76035,0,0,0,48.30829,31.49524c5.7348,3.13879,8.56665,4.61731,26.5039,13.83795,21.652,11.13019,27.51374,14.314,36.42524,19.78406a223.13807,223.13807,0,0,1,53.86132,45.79474c11.08576,12.92285,19.11744,26.95306,22.84339,39.90423l.00006.00006a14.6845,14.6845,0,0,1,.62457,2.65943,14.54866,14.54866,0,0,1-2.04846-2.17237c-8.1792-9.6231-19.87964-19.66662-34.11975-29.28833-17.8064-12.03112-35.99555-22.096-75.602-41.83374-37.67151-18.7735-48.40338-24.91223-68.17322-38.99609-18.02917-12.84381-31.96936-25.40765-43.371-39.08893-11.63251-13.95837-24.24176-33.55969-31.02155-48.22363-9.161-19.81439-12.99707-36.36243-11.37616-49.07483C280.87469,118.37109,282.62622,110.50055,283.03961,110.0907ZM492.21112,397.3114a155.48442,155.48442,0,0,1-51.16534-12.84167c-4.66278-1.99121-15.7251-7.34009-15.54755-7.51764a16.71816,16.71816,0,0,1,2.9425,1.02179,264.07269,264.07269,0,0,0,26.35309,9.038,244.05846,244.05846,0,0,0,32.31494,5.86517c6.47864.7237,24.21094.72467,29.33863.00324a88.141,88.141,0,0,0,21.66955-5.60907,17.37062,17.37062,0,0,1,2.6258-1.00281c.1925.19245-6.512,4.77777-7.922,5.418-4.99512,2.26782-16.36389,4.746-25.30255,5.5155v-.00152C504.41742,397.46729,494.96753,397.53583,492.21112,397.3114ZM275.63147,154.42969c1.82758,16.809,6.22192,30.72644,15.6427,49.54345a234.74915,234.74915,0,0,0,35.47437,52.30634c13.03985,14.41364,32.09368,30.16559,51.245,42.36469a357.03575,357.03575,0,0,0,43.493,23.66534c16.21674,7.63226,23.13825,10.53363,43.79529,18.35828,17.23761,6.52935,28.431,11.00586,26.36218,10.54284-2.24267-.50195-35.05511-9.64313-40.39367-11.25317-33.38538-10.06885-52.44135-18.25018-77.10236-33.10224a169.08131,169.08131,0,0,1-19.2785-13.13964,10.03465,10.03465,0,0,0-2.42169-1.60151c-.17212.17212,6.90087,5.84418,13.06677,10.47864a265.40638,265.40638,0,0,0,46.33417,27.38874c16.34271,7.397,33.78668,13.48394,63.49609,22.15643,16.39508,4.78589,22.68182,6.72064,30.53906,9.39837a255.27274,255.27274,0,0,1,27.42945,11.10718h.00006c1.40313.71552,2.3598,1.29151,2.126,1.27985-.23382-.01154-2.59362-.44483-5.24408-.96277-4.462-.872-8.90551-1.53833-28.20471-4.22949-31.69366-4.41956-53.07587-9.48529-72.71112-17.22632a272.03164,272.03164,0,0,1-77.52515-47.69891c-22.28607-19.70826-44.34167-46.59644-58.62439-71.46955-13.155-22.90918-19.43591-42.81042-21.05377-66.70971a158.07346,158.07346,0,0,1,1.30933-29.96839,94.75529,94.75529,0,0,1,2.25976-9.94848c.0478.04956-.103,2.51373-.335,5.47589A154.25557,154.25557,0,0,0,275.63147,154.42969Zm3.69824-.70868c-.07617-.54566.66773,1.30395,1.65308,4.11023,6.00989,17.11719,13.98895,32.29443,25.93036,49.32281,15.6795,22.35895,31.08105,37.6305,55.89636,55.42438,19.05823,13.66577,32.03662,21.19617,65.05511,37.74646,31.3902,15.73419,50.59711,25.95886,65.03638,34.62183,6.30579,3.78314,19.93219,12.81207,24.29608,16.09857,4.54663,3.42413,11.83728,9.51343,14.89838,12.4433a34.11353,34.11353,0,0,1,2.49359,2.50738c-.07794-.00824-1.6087-.89892-3.40155-1.97931-5.26776-3.17413-25.90192-13.42749-36.15326-17.96484-6.77624-2.99927-12.134-5.15253-27.50677-11.05487-22.22736-8.53412-26.33338-10.246-41.69153-17.38159-26.32166-12.22931-44.63867-22.865-62.6012-36.34876-16.93066-12.70923-29.13324-24.22906-40.79388-38.51129a249.39329,249.39329,0,0,1-33.55371-55.44373A126.2828,126.2828,0,0,1,279.32971,153.721Zm59.6687,161.32275c-5.89508-5.27154-15.42315-14.43274-19.49041-18.74-4.14826-4.39313-12.99183-15.84131-22.11622-28.62994-13.824-19.37567-24.1668-38.13727-30.36785-55.08722a142.10578,142.10578,0,0,1-8.23725-36.017c-2.04175-25.54565,5.54785-51.61151,19.32221-66.361a21.09782,21.09782,0,0,1,2.54675-2.4361c.48138-.25763.459-.12475-.19714,1.17a20.26318,20.26318,0,0,1-1.97315,2.97443c-3.78064,4.6416-8.27283,16.46015-9.90985,26.07178a141.13486,141.13486,0,0,0-1.57251,27.443c1.31195,27.53186,9.43323,51.334,27.16119,79.60492,10.4759,16.706,26.71918,36.86578,41.99256,52.11749,19.42395,19.39631,40.639,34.86469,66.763,48.67817a230.65917,230.65917,0,0,0,37.55908,15.8955c17.97919,5.91016,37.757,9.90876,71.00787,14.356,11.87757,1.58862,20.94794,3.02722,26.18506,4.15308l2.941.63226-.99438.51019c-4.79077,2.45777-13.50373,4.647-23.0293,5.7862H516.589c-3.48291.41656-15.98291.7583-19.4173.53088a206.06036,206.06036,0,0,1-47.53418-8.44891C411.65594,367.30518,371.16754,343.80981,338.99841,315.04376Zm35.24933,40.75336c-6.306-5.89868-21.07605-21.27783-21.07605-21.94531a5.31711,5.31711,0,0,1,1.48816,1.01977c11.08551,8.93024,26.98767,19.46741,42.35932,28.06836,3.05615,1.71,6.90954,4.10535,8.56323,5.32294,16.49865,12.14862,34.473,21.71435,51.40985,27.3598,16.03888,5.34607,33.32837,7.90961,47.4259,7.0318,2.92822-.18237,5.37323-.28229,5.43329-.22223a33.177,33.177,0,0,1-4.08832,1.11322,102.01248,102.01248,0,0,1-12.27643,2.18506h-.00006a173.75586,173.75586,0,0,1-19.13385.26892,144.99586,144.99586,0,0,1-41.905-10.23962C412.59558,387.26953,394.91565,375.12976,374.24774,355.79712Zm169.087,39.92139c-9.22528,12.29626-19.92011,20.76428-32.415,25.66589a82.36186,82.36186,0,0,1-19.4173,4.56384v.00006a75.804,75.804,0,0,1-45.517-8.59564c-11.29657-5.94281-24.07074-14.83179-37.11291-25.82538-4.50208-3.79486-6.71771-5.78546-6.09448-5.47546.23382.11633,1.50939.93494,2.83465,1.81909a145.73891,145.73891,0,0,0,61.08661,23.49481c19.43054,2.76728,38.43787.53748,54.567-6.4013,9.135-3.93,19.96691-10.91932,26.42785-17.0528.58179-.55224,1.11872-.94318,1.19318-.86877C549.09564,387.25128,545.66083,392.6181,543.33472,395.71851Zm9.95739-14.65888c-.35925,0-.55267-1.1839-.557-3.40369l-.00434-2.128,3.89765-.92926a70.51887,70.51887,0,0,0,18.3247-7.47863,132.88733,132.88733,0,0,0,13.49421-9.00086c1.637-1.28863,4.47516-3.499,6.30706-4.91193a27.58759,27.58759,0,0,0,3.33075-2.80114,21.75265,21.75265,0,0,0-3.61419,2.14081,200.265,200.265,0,0,1-27.00061,14.0003c-4.91492,1.90082-12.0484,3.74078-14.50324,3.74078h-.95019l-.52106-2.33862c-.28662-1.28619-.87549-3.44714-1.30853-4.80212-.91278-2.85578-.96552-2.77887,1.92883-2.78211,4.644-.00372,13.895-1.90686,20.88232-4.296,15.15351-5.18115,34.96528-16.81146,49.44294-29.025,1.62512-1.371,2.86493-2.25842,2.75506-1.97217a104.9677,104.9677,0,0,1-5.66656,9.21594q-17.56567,26.41389-42.56293,38.54883a103.30736,103.30736,0,0,1-19.38562,7.07971l.00055.00006C555.33875,380.54523,553.40833,381.05963,553.29211,381.05963Zm83.4881-66.89715a25.92569,25.92569,0,0,1,2.54761-4.11023c4.10089-4.85376,11.03833-15.07373,15.875-23.38636,4.64667-7.986,5.85846-9.96869,6.00391-9.82324a13.53925,13.53925,0,0,1-.43958,2.78137c-.31506,1.45649-1.21832,6.21985-2.00726,10.58521a145.24369,145.24369,0,0,1-4.74164,20.08728c-9.47333,29.4613-29.59436,52.88873-55.87866,65.061-10.9029,5.04914-20.64521,7.67987-35.2041,9.50617-3.19611.40094-6.15693.77051-6.57966.82117-.69592.08343-1.07391-.23768-1.07391-.91242a8.99973,8.99973,0,0,1,2.622-.55493c16.36389-2.15735,33.45825-10.87512,47.38947-24.1676C616.32343,349.52563,626.45428,334.76141,636.78021,314.16248Zm-82.4909,75.402.46643-.9021,3.87732.19367a96.11213,96.11213,0,0,0,63.39886-21.531c12.53064-10.02288,22.59619-22.65735,30.49768-38.28119,6.56183-12.97479,9.4997-22.44934,12.74488-41.10235,2.2373-12.85968,2.70025-14.9234,4.98693-22.22852.19464-.6217.50238-.10547,1.59131,2.66944,3.21417,8.19055,4.71674,17.98321,4.371,28.48816a83.21613,83.21613,0,0,1-3.58038,22.19293A92.66288,92.66288,0,0,1,648.557,359.23431c-1.95716,1.94965-4.83405,4.60981-6.39313,5.91156-16.60034,13.86048-40.19116,24.31452-60.51965,26.81873v-.00006a117.51347,117.51347,0,0,1-14.74012.54419c-4.1925-.29547-12.586-1.54694-12.97345-1.93439A2.234,2.234,0,0,1,554.28931,389.56451Zm133.25048-36.001a112.52578,112.52578,0,0,1-22.314,30.19092c-15.73468,15.35046-34.47516,24.09918-54.33685,25.36621h-.00031c-2.44293.15582-4.88812.26519-5.43378.24279a115.60349,115.60349,0,0,1-12.90948-1.1958c-4.37842-.68444-12.18713-2.3894-11.9643-2.61218a12.03075,12.03075,0,0,1,2.35779.28479,70.66931,70.66931,0,0,0,14.97455.93286,61.05314,61.05314,0,0,0,16.18713-2.1792A86.88331,86.88331,0,0,0,662.55634,372.278a80.45215,80.45215,0,0,0,8.90863-15.37311c1.38165-3.034,3.16149-6.77588,3.9552-8.31525a20.33976,20.33976,0,0,0,1.347-2.895,30.57433,30.57433,0,0,0-2.18066,3.39026c-1.14637,1.91754-3.36585,5.27228-4.93213,7.455s-3.79144,5.28118-4.94489,6.88568a91.13741,91.13741,0,0,1-33.115,28.777c-19.68622,9.99578-37.19317,12.09759-59.26446,7.1148-4.7035-1.06183-12.55237-3.16913-12.79108-3.43414-.08081-.08984.23566-.06958.70343.045a55.89939,55.89939,0,0,0,14.8819,1.631c14.38025-.00763,29.43487-4.0451,45.54107-12.21362a109.6843,109.6843,0,0,0,29.5907-21.27093,100.61582,100.61582,0,0,0,15.36194-19.22992c7.78442-12.40308,13.41724-29.11493,14.97565-44.43079a122.10152,122.10152,0,0,0-.142-19.10815,36.17024,36.17024,0,0,1-.34949-3.90125c.188-.188,1.9046,3.81262,2.88452,6.72235a76.25072,76.25072,0,0,1,2.88257,12.602,124.78309,124.78309,0,0,1-.00323,23.24408c-1.22754,8.21723-2.44928,13.0506-4.32837,17.12366-1.43531,3.111-.93348,2.78772.68353-.44037A78.1095,78.1095,0,0,0,689.80023,309.91a97.56589,97.56589,0,0,0-.27215-19.41729,59.18451,59.18451,0,0,0-5.85492-17.97413,18.56682,18.56682,0,0,1-1.30713-2.76348,15.838,15.838,0,0,1,2.05737,2.08294c8.51917,9.46814,11.59955,15.48621,13.43164,26.24048C700.782,315.25952,697.27087,334.14557,687.53979,353.56354ZM699.56628,287.941c-.11645.0719-.43835-.47254-.71539-1.21a72.16925,72.16925,0,0,0-5.07788-9.84467,56.48049,56.48049,0,0,0-6.79749-8.28479c-.51354-.43231-2.12182-1.8587-3.57409-3.16974l-2.64044-2.38366,1.34948.18493a10.77266,10.77266,0,0,1,2.78.90351,4.84961,4.84961,0,0,0,1.54505.60406c.25708-.25708-1.77985-1.658-3.9621-2.72491a13.45868,13.45868,0,0,0-8.45142-1.42426c-4.4505.60932-7.08764,1.998-10.745,5.658-3.02289,3.02509-5.74988,6.80676-10.19977,14.14447-6.9259,11.42078-13.75275,21.18744-19.34357,27.67346a162.704,162.704,0,0,1-15.67859,15.19806c-14.45831,11.85242-32.61413,22.38715-47.32428,27.45941a88.18124,88.18124,0,0,1-14.26934,3.52735c-1.662.2312-4.377.50751-6.03309.61389l-3.01116.19354.24926-1.52759a59.0701,59.0701,0,0,0-.48449-10.20593c-.146-.728-.09894-.75268,2.62921-1.37311,7.05334-1.60412,16.23974-5.25061,27.15588-10.77935,18.27509-9.25586,32.439-18.59528,44.07874-29.06482a249.42421,249.42421,0,0,0,18.31152-18.84565c2.04224-2.416,5.25458-6.17633,7.13855-8.35644a38.57416,38.57416,0,0,0,3.29675-4.09247,52.74739,52.74739,0,0,0-4.40539,4.32526c-3.8736,4.034-14.13568,13.29126-22.21546,20.04016-12.22076,10.2077-26.3612,19.16308-45.63781,28.90314a184.57664,184.57664,0,0,1-18.86817,8.52148,98.84679,98.84679,0,0,1-11.37738,3.52881l-1.01037.18951-.32752-1.93866c-.18011-1.06622-.40076-2.35321-.49023-2.85986-.15387-.87115-.11634-.92126.68939-.92126,1.88232,0,8.20642-2.36487,13.73779-5.13715,13.04328-6.53723,30.4491-19.49255,58.60712-43.62183,17.58612-15.07,22.63525-18.80407,31.18109-23.06006,14.74267-7.3421,30.02338-7.69348,39.53107-.90887a41.80707,41.80707,0,0,1,8.432,9.106c2.936,4.3692,2.89185,4.20776,2.90631,10.61407C700.55682,282.80481,700.10229,287.60968,699.56628,287.941Z" transform="translate(-122.84051 -70.4264)"/></g></svg>